<svg width="957" height="942" viewBox="0 0 957 942" fill="none" xmlns="http://www.w3.org/2000/svg">
<path d="M342.039 758.794C185.634 847.233 120.042 479.909 202.621 320.332C285.2 160.754 571.941 15.0723 641.084 180.913C692.767 304.876 1049.7 323.084 747.155 669.361C696.665 727.147 658.458 579.876 342.039 758.794Z" fill="#E9FCFD" fill-opacity="0.8"/>
<path d="M198.165 670.146L167.718 820.075H796.413L761.027 670.146H198.165Z" fill="#8FBEDC"/>
<path d="M593.581 200.648H368.258C353.931 200.648 342.277 214.037 342.277 230.496V658.495C342.277 674.954 353.929 688.343 368.258 688.343H593.581C607.907 688.343 619.566 674.954 619.566 658.495V230.496C619.566 214.037 607.909 200.648 593.581 200.648Z" fill="#07334C"/>
<path d="M595.699 197.57H370.376C354.054 197.57 340.774 212.583 340.774 231.039V659.038C340.774 677.492 354.053 692.507 370.376 692.507H595.699C612.024 692.507 625.303 677.492 625.303 659.038V231.039C625.304 212.583 612.024 197.57 595.699 197.57ZM619.874 659.036C619.874 674.496 609.03 687.074 595.701 687.074H370.376C357.049 687.074 346.205 674.496 346.205 659.036V231.039C346.205 215.579 357.047 203.001 370.376 203.001H595.699C609.028 203.001 619.872 215.579 619.872 231.039V659.036H619.874Z" fill="#C6E1EC"/>
<path d="M589.71 225.387H374.766C368.071 225.387 362.646 231.622 362.646 239.312V652.282C362.646 659.972 368.073 666.207 374.766 666.207H589.71C596.405 666.207 601.83 659.972 601.83 652.282V239.312C601.83 231.622 596.405 225.387 589.71 225.387Z" fill="#C6E1EC"/>
<g opacity="0.4">
<path d="M601.83 239.098C601.83 231.408 596.405 225.173 589.71 225.173H575.775L362.646 438.304V525.348L601.83 286.164V239.098Z" fill="#E9FBFD"/>
<path d="M363.446 570.754V620.334L602.63 381.148V331.568L363.446 570.754Z" fill="#E9FBFD"/>
</g>
<path d="M483.039 245.454C492.662 245.454 500.463 237.653 500.463 228.03C500.463 218.407 492.662 210.606 483.039 210.606C473.416 210.606 465.615 218.407 465.615 228.03C465.615 237.653 473.416 245.454 483.039 245.454Z" fill="#07334C"/>
<path d="M483.039 235.272C487.038 235.272 490.28 232.03 490.28 228.03C490.28 224.031 487.038 220.789 483.039 220.789C479.04 220.789 475.798 224.031 475.798 228.03C475.798 232.03 479.04 235.272 483.039 235.272Z" fill="#C6E1EC"/>
<path d="M552.031 646.672H414.047C412.054 646.672 410.438 648.289 410.438 650.282C410.438 652.275 412.054 653.891 414.047 653.891H552.031C554.024 653.891 555.641 652.275 555.641 650.282C555.641 648.287 554.024 646.672 552.031 646.672Z" fill="#E9FBFD"/>
<path d="M126.86 738.681C153.234 738.681 174.615 730.414 174.615 720.216C174.615 710.018 153.234 701.751 126.86 701.751C100.485 701.751 79.1042 710.018 79.1042 720.216C79.1042 730.414 100.485 738.681 126.86 738.681Z" fill="#E9FBFD"/>
<path d="M829.827 738.681C856.202 738.681 877.583 730.414 877.583 720.216C877.583 710.018 856.202 701.751 829.827 701.751C803.453 701.751 782.072 710.018 782.072 720.216C782.072 730.414 803.453 738.681 829.827 738.681Z" fill="#E9FBFD"/>
<path d="M86.3238 582.712C82.3013 575.312 81.2459 566.731 80.5598 558.36C79.8737 549.989 79.4537 541.454 76.5156 533.572C89.2202 539.702 100.773 548.141 110.428 558.337C119.269 567.676 128.496 584.113 116.221 594.946C106.423 603.594 91.0957 591.49 86.3238 582.712Z" fill="#8FBEDC"/>
<path d="M150.055 528.822C157.483 524.302 165.01 519.358 169.756 512.075C169.461 518.911 169.166 525.746 168.871 532.584C168.522 540.672 168.154 548.874 165.678 556.581C160.868 571.557 139.025 587.224 126.011 570.898C112.455 553.894 137.995 536.161 150.055 528.822Z" fill="#8FBEDC"/>
<path d="M117.017 638.706C118.907 632.171 119.606 625.214 119.056 618.299C118.534 611.366 116.55 604.597 113.759 597.991C110.98 591.389 107.765 584.841 104.727 578.272L95.5073 558.576L106.027 577.595L111.288 587.104C113.087 590.249 114.939 593.384 116.65 596.63C120.113 603.069 122.964 610.151 124.229 617.627C125.527 625.078 125.5 632.819 124.061 640.384L117.017 638.706Z" fill="#919191"/>
<path d="M112.754 595.717C113.217 592.705 114.124 589.859 115.346 587.164C116.568 584.472 118.089 581.91 120.013 579.624C120.978 578.485 122.023 577.397 123.234 576.465C124.351 575.569 125.464 574.758 126.539 573.851C128.719 572.093 130.812 570.225 132.852 568.299C140.996 560.576 148.024 551.602 153.581 541.744C148.572 551.894 142.006 561.322 134.17 569.615C132.207 571.684 130.182 573.701 128.06 575.614C127.024 576.59 125.898 577.513 124.857 578.443C123.864 579.289 122.986 580.299 122.176 581.358C118.996 585.641 116.918 590.949 116.349 596.154L112.754 595.717Z" fill="#919191"/>
<path d="M157.202 717.667H96.1864L81.0234 630.256H168.895L157.202 717.667Z" fill="#919191"/>
<path d="M81.4741 634.25L84.93 664.963H164.988L168.444 634.25H81.4741Z" fill="#919191"/>
<path d="M168.529 659.963H81.389C77.7214 659.963 74.7471 656.988 74.7471 653.321V636.896C74.7471 633.228 77.7196 630.254 81.389 630.254H168.529C172.197 630.254 175.171 633.227 175.171 636.896V653.321C175.171 656.988 172.197 659.963 168.529 659.963Z" fill="#919191"/>
<path d="M804.302 552.696C804.753 545.493 807.898 538.784 811.214 532.395C814.529 526.009 818.113 519.622 819.572 512.564C826.001 522.801 830.543 534.188 832.903 545.987C835.065 556.794 834.274 572.928 820.43 575.196C809.378 577.008 803.767 561.24 804.302 552.696Z" fill="#8FBEDC"/>
<path d="M819.608 638.706C821.762 631.281 822.367 623.303 821.339 615.47C821.082 613.511 820.734 611.559 820.262 609.633C820.164 609.191 820.008 608.605 819.896 607.997C819.789 607.405 819.711 606.813 819.679 606.23C819.601 605.06 819.646 603.922 819.755 602.823C820.204 598.451 821.556 594.559 821.371 590.786C821.326 589.852 821.176 588.942 820.888 588.074C820.647 587.327 820.032 586.13 819.827 585.05C819.351 582.888 819.257 580.792 819.21 578.704C819.143 574.534 819.373 570.415 819.597 566.3C819.825 562.187 820.092 558.082 820.204 553.976C820.253 551.923 820.273 549.868 820.16 547.819C820.017 545.784 819.878 543.693 819.04 541.802C819.974 543.655 820.22 545.759 820.464 547.796C820.68 549.85 820.761 551.916 820.816 553.978C820.91 558.103 820.846 562.225 820.821 566.34C820.799 570.451 820.778 574.568 821.044 578.625C821.185 580.643 821.395 582.678 821.902 584.519C822.141 585.46 822.537 586.081 823.077 587.235C823.538 588.286 823.832 589.403 823.991 590.517C824.596 595.008 823.527 599.2 823.538 603.038C823.535 603.992 823.591 604.919 823.734 605.797C823.799 606.237 823.9 606.663 824.016 607.073C824.13 607.47 824.275 607.868 824.454 608.417C825.153 610.437 825.725 612.502 826.201 614.595C828.102 622.962 828.294 631.789 826.652 640.386L819.608 638.706Z" fill="#919191"/>
<path d="M863.126 563.788C870.322 562.839 877.737 561.601 883.818 557.638C881.289 562.759 878.758 567.881 876.229 573.002C873.236 579.061 870.19 585.2 865.7 590.252C856.978 600.07 835.016 604.669 830.581 587.814C825.961 570.261 851.441 565.328 863.126 563.788Z" fill="#8FBEDC"/>
<path d="M821.377 591.733C822.682 590.283 824.527 589.054 826.46 588.571C828.379 588.064 830.173 588.051 831.869 587.977C835.222 587.901 838.462 587.369 841.674 586.384C848.086 584.409 854.016 580.839 860.135 577.836C854.292 581.349 848.75 585.404 842.264 588.044C839.045 589.356 835.552 590.227 832.094 590.62C830.399 590.844 828.754 591.049 827.405 591.561C826.053 592.059 825.028 592.912 824.143 594.07L821.377 591.733Z" fill="#919191"/>
<path d="M782.24 563.788C775.045 562.839 767.63 561.601 761.549 557.638C764.078 562.759 766.609 567.881 769.138 573.002C772.13 579.061 775.177 585.2 779.666 590.252C788.388 600.069 810.351 604.669 814.786 587.814C819.407 570.261 793.926 565.328 782.24 563.788Z" fill="#8FBEDC"/>
<path d="M821.377 593.886C820.504 592.745 819.478 591.934 818.102 591.476C816.73 591.004 815.063 590.839 813.35 590.625C809.867 590.243 806.375 589.376 803.146 588.062C796.641 585.422 791.089 581.358 785.233 577.837C791.364 580.848 797.309 584.427 803.736 586.398C806.951 587.383 810.211 587.913 813.555 587.977C815.244 588.038 817.023 588.009 818.955 588.457C820.897 588.873 822.82 590.07 824.141 591.55L821.377 593.886Z" fill="#919191"/>
<path d="M864.692 717.668L793.725 719.119L783.616 630.256H871.486L864.692 717.668Z" fill="#999999"/>
<path d="M784.065 634.25L787.521 664.963H867.579L871.035 634.25H784.065Z" fill="#999999"/>
<path d="M872.672 659.963H782.429C779.617 659.963 777.34 657.684 777.34 654.872V635.345C777.34 632.533 779.619 630.256 782.429 630.256H872.672C875.483 630.256 877.76 632.535 877.76 635.345V654.872C877.762 657.684 875.483 659.963 872.672 659.963Z" fill="#999999"/>
<path d="M496.819 495.614C517.905 486.88 527.918 462.706 519.184 441.62C510.45 420.534 486.276 410.521 465.19 419.255C444.104 427.99 434.091 452.163 442.825 473.249C451.56 494.335 475.733 504.348 496.819 495.614Z" fill="#07334C"/>
<path d="M466.228 506.117H495.753V539.418H466.228V506.117Z" fill="white" stroke="#07334C"/>
<path d="M510.901 489.253V489.253C510.903 495.88 507.633 502.081 502.164 505.825L488.914 514.892C484.139 518.16 477.845 518.16 473.067 514.892C473.067 514.892 473.067 514.892 473.067 514.892L459.818 505.825C454.348 502.081 451.077 495.88 451.077 489.253V459.754C451.077 443.235 464.47 429.842 480.989 429.842C497.508 429.842 510.901 443.235 510.901 459.754V489.253Z" fill="white" stroke="#07334C"/>
<path d="M450.579 480.779C455.177 480.779 458.904 477.052 458.904 472.454C458.904 467.856 455.177 464.129 450.579 464.129C445.981 464.129 442.254 467.856 442.254 472.454C442.254 477.052 445.981 480.779 450.579 480.779Z" fill="white"/>
<path d="M511.403 480.779C516 480.779 519.727 477.052 519.727 472.454C519.727 467.856 516 464.129 511.403 464.129C506.805 464.129 503.078 467.856 503.078 472.454C503.078 477.052 506.805 480.779 511.403 480.779Z" fill="white"/>
<path d="M500.61 410.626C502.481 399.791 495.215 389.49 484.379 387.618C473.544 385.747 463.243 393.014 461.372 403.849C459.5 414.684 466.767 424.985 477.602 426.857C488.437 428.728 498.738 421.462 500.61 410.626Z" fill="#07334C"/>
<path d="M495.682 428.314H466.299C456.214 428.314 448.041 436.488 448.041 446.572V455.417H450.579V474.722L455.632 455.417H506.349L511.402 474.722V455.417H513.941V446.572C513.941 436.49 505.767 428.314 495.682 428.314Z" fill="#07334C"/>
<path d="M465.728 510.476C465.728 510.476 478.889 519.623 496.253 510.476V516.365C496.253 516.365 476.119 521.865 465.728 510.476Z" fill="#07334C"/>
<path d="M481.423 475.434L475.948 488.427L482.253 489.45" stroke="#3C3C6D" stroke-width="0.75" stroke-miterlimit="10" stroke-linecap="round"/>
<path d="M461.82 474.174C463.063 476.152 465.301 477.468 467.633 477.592C469.965 477.717 472.331 476.649 473.779 474.816" stroke="#3C3C6D" stroke-width="0.75" stroke-miterlimit="10" stroke-linecap="round"/>
<path d="M475.329 463.606C471.683 463.279 467.845 463.214 464.515 464.46C462.447 465.235 460.65 466.49 458.46 466.998" stroke="#3C3C6D" stroke-miterlimit="10" stroke-linecap="round"/>
<path d="M500.162 474.174C498.918 476.152 496.68 477.468 494.348 477.592C492.016 477.717 489.65 476.649 488.202 474.816" stroke="#3C3C6D" stroke-width="0.75" stroke-miterlimit="10" stroke-linecap="round"/>
<path d="M486.653 463.606C490.298 463.279 494.137 463.214 497.467 464.46C499.534 465.235 501.331 466.49 503.522 466.998" stroke="#3C3C6D" stroke-miterlimit="10" stroke-linecap="round"/>
<path d="M478.538 499.424C480.337 500.211 482.436 500.103 484.294 499.47C486.154 498.837 487.807 497.716 489.351 496.501" stroke="#3C3C6D" stroke-width="0.75" stroke-miterlimit="10" stroke-linecap="round"/>
<path d="M428.237 442.574L440.867 519.919L412.009 524.63L399.379 447.287L398.929 447.36L399.379 447.287C397.123 433.481 400.268 419.544 408.232 408.043L462.262 337.872L477.488 348.42L432.265 424.697C428.642 429.937 427.209 436.285 428.237 442.574Z" fill="white" stroke="#07334C"/>
<path d="M463.342 334.711L467.951 317.646L467.951 317.646L467.951 317.645L467.952 317.643L467.955 317.631L467.968 317.585L468.018 317.403C468.061 317.243 468.125 317.006 468.208 316.701C468.374 316.09 468.613 315.202 468.908 314.096C469.498 311.885 470.313 308.799 471.21 305.304C472.94 298.555 474.98 290.267 476.302 283.784C476.338 283.797 476.373 283.809 476.408 283.822C476.433 283.831 476.458 283.84 476.482 283.849C476.855 283.985 477.29 284.155 477.72 284.466C478.545 285.063 479.465 286.264 479.538 289.072C479.593 291.146 479.512 295.441 479.42 300.362C479.383 302.355 479.344 304.451 479.311 306.544C479.254 310.168 479.216 313.776 479.239 316.808C479.263 319.828 479.348 322.31 479.543 323.662C479.855 325.816 480.592 328.107 481.295 330.293C481.466 330.823 481.635 331.348 481.795 331.863C482.632 334.553 483.223 336.946 482.86 338.799L482.851 338.846V338.895C482.851 344.53 478.284 349.097 472.649 349.097C467.013 349.097 462.447 344.53 462.447 338.895C462.447 337.431 462.76 336.042 463.317 334.782L463.332 334.747L463.342 334.711Z" fill="white" stroke="#07334C"/>
<path d="M563.096 447.368L562.603 447.287L549.972 524.63L521.116 519.919L533.747 442.574C534.774 436.285 533.342 429.937 529.719 424.697L484.493 348.42L499.719 337.872L553.749 408.043C561.714 419.544 564.858 433.481 562.603 447.287L563.096 447.368Z" fill="white" stroke="#07334C"/>
<path d="M550.241 562.913L560.048 522.768L522.95 492.583L507.848 533.412L497.204 530.715L493.921 531.968C485.593 535.145 476.387 535.145 468.06 531.968L464.777 530.715L454.134 533.412L439.032 492.583L401.934 522.768L411.74 562.913L421.79 630.663C424.731 650.484 424.552 657.416 421.256 677.182L414.422 710.625H481.941H483.824H547.558L540.724 677.182C537.43 657.416 537.248 650.485 540.189 630.663L550.241 562.913Z" fill="#8FBEDC"/>
<path d="M485.572 283.822C485.607 283.81 485.642 283.797 485.677 283.784C487 290.267 489.039 298.555 490.77 305.304C491.667 308.799 492.481 311.885 493.072 314.096C493.367 315.202 493.606 316.09 493.772 316.701C493.854 317.006 493.919 317.243 493.962 317.403L494.012 317.585L494.024 317.631L494.028 317.643L494.028 317.645L494.028 317.646L494.029 317.646L498.638 334.711L498.648 334.747L498.663 334.782C499.22 336.042 499.533 337.431 499.533 338.895C499.533 344.53 494.966 349.097 489.331 349.097C483.695 349.097 479.128 344.53 479.128 338.895V338.847L479.119 338.799C478.758 336.947 479.349 334.553 480.186 331.863C480.346 331.349 480.515 330.825 480.686 330.295C481.389 328.108 482.126 325.817 482.438 323.662C482.634 322.31 482.719 319.828 482.742 316.808C482.766 313.776 482.728 310.168 482.671 306.544C482.638 304.451 482.599 302.355 482.561 300.362C482.469 295.441 482.389 291.146 482.443 289.072C482.517 286.264 483.437 285.063 484.262 284.466C484.691 284.155 485.127 283.985 485.499 283.849C485.523 283.84 485.548 283.831 485.572 283.822Z" fill="white" stroke="#07334C"/>
<path d="M348.498 731.748L414.564 710.625H480.949V742.787L348.498 731.748Z" fill="#07334C"/>
<path d="M613.484 731.748L547.418 710.625H481.032V742.787L613.484 731.748Z" fill="#07334C"/>
<path d="M604.809 788.471L412.075 760.8L416.568 722.965L609.698 731.799C625.275 732.511 637.131 746.757 635.602 763.037C634.09 779.141 620.088 790.665 604.809 788.471Z" fill="#07334C" stroke="#C6E1EC"/>
<path d="M545.413 722.965L549.906 760.8L357.173 788.471C341.891 790.665 327.891 779.141 326.379 763.037L325.882 763.084L326.379 763.037C324.85 746.757 336.706 732.511 352.283 731.799L545.413 722.965Z" fill="#07334C" stroke="#C6E1EC"/>
<path d="M415.866 724.646C415.866 724.646 410.99 718.636 404.137 719.755C397.287 720.874 379.291 730.062 379.291 730.062L415.418 728.408L415.866 724.646Z" fill="white"/>
<path d="M546.129 724.646C546.129 724.646 551.005 718.636 557.857 719.755C564.708 720.874 582.704 730.062 582.704 730.062L546.577 728.408L546.129 724.646Z" fill="white"/>
<path d="M450.256 604.658C440.487 604.658 431.888 600.512 426.855 594.226C429.721 602.734 439.1 608.982 450.256 608.982C461.412 608.982 470.791 602.734 473.656 594.226C468.624 600.512 460.025 604.658 450.256 604.658Z" fill="#175070" fill-opacity="0.7"/>
<path d="M506.058 604.658C496.289 604.658 487.69 600.512 482.658 594.226C485.523 602.734 494.902 608.982 506.058 608.982C517.214 608.982 526.593 602.734 529.458 594.226C524.424 600.512 515.827 604.658 506.058 604.658Z" fill="#175070" fill-opacity="0.7"/>
</svg>
