<svg width="448" height="453" viewBox="0 0 448 453" fill="none" xmlns="http://www.w3.org/2000/svg">
<path d="M379.699 71.2683C335.301 34.6734 280.571 10.9832 223.906 13.4186C167.232 11.0148 112.526 34.6971 68.1042 71.2683C105.009 25.7382 165.003 1.78704 223.906 0C282.808 1.81867 342.762 25.754 379.699 71.2683Z" fill="#EBD6CB"/>
<path d="M389.2 373.547C388.837 373.547 388.528 373.247 388.528 372.875C388.528 372.504 388.837 372.195 389.2 372.195C389.572 372.195 389.872 372.504 389.872 372.875C389.872 373.247 389.572 373.547 389.2 373.547Z" fill="#EBD6CB"/>
<path d="M405.673 355.511C403.594 355.511 401.91 353.819 401.91 351.739C401.91 349.66 403.594 347.967 405.673 347.967C407.751 347.967 409.443 349.66 409.443 351.739C409.443 353.819 407.751 355.511 405.673 355.511Z" fill="#EBD6CB"/>
<path d="M428.816 294.475C440.728 267.479 444.412 236.831 438.752 207.787C438.254 205.265 439.906 202.814 442.428 202.323C444.957 201.825 447.399 203.478 447.897 206.008C447.961 206.317 447.984 206.665 447.984 206.973C447.573 237.542 444.546 267.551 437.764 297.408C437.195 299.962 434.666 301.568 432.12 300.998C429.567 300.437 427.963 297.907 428.524 295.352C428.595 295.06 428.706 294.744 428.816 294.475Z" fill="#EBD6CB"/>
<path d="M443.368 212.018C440.807 212.018 438.728 209.938 438.728 207.376C438.728 204.822 440.807 202.743 443.368 202.743C445.929 202.743 448 204.822 448 207.376C448 209.938 445.929 212.018 443.368 212.018Z" fill="#EBD6CB"/>
<path d="M439.282 186.548C435.899 186.548 433.164 183.812 433.164 180.428C433.164 177.044 435.899 174.3 439.282 174.3C442.665 174.3 445.4 177.044 445.4 180.428C445.4 183.812 442.665 186.548 439.282 186.548Z" fill="#EBD6CB"/>
<path d="M422.714 148.103C413.695 120.27 397.689 95.2827 379.225 71.7427C378.996 71.4501 379.043 71.0232 379.343 70.7938C379.588 70.5962 379.936 70.6041 380.181 70.7938C404.013 89.5736 421.623 115.549 434.721 143.319C436.262 146.553 434.887 150.42 431.654 151.954C428.421 153.496 424.556 152.12 423.023 148.886C422.912 148.649 422.793 148.348 422.714 148.103Z" fill="#EBD6CB"/>
<path d="M121.822 422.517C167.358 440 216.136 448.216 262.874 437.28C310.458 430.883 352.88 405.414 389.2 372.875C361.006 413.764 313.967 439.463 265.3 450.477C215.954 457.412 162.813 450.667 121.822 422.517Z" fill="#EBD6CB"/>
<path d="M6.26897 192.534C6.80647 215.687 6.01608 238.167 10.561 260.323C14.7187 282.385 22.3543 303.647 33.0092 323.139C51.1891 364.304 84.2843 396.368 121.822 422.517C78.1427 406.26 43.9171 369.926 21.0263 329.18C11.0827 307.759 4.56958 284.883 1.75566 261.683C-2.44942 238.444 1.63706 214.928 6.26897 192.534Z" fill="#EBD6CB"/>
<path d="M68.1042 71.9404C67.7327 71.9404 67.4244 71.6399 67.4244 71.2682C67.4244 70.8966 67.7327 70.5961 68.1042 70.5961C68.4757 70.5961 68.7761 70.8966 68.7761 71.2682C68.7761 71.6399 68.4757 71.9404 68.1042 71.9404Z" fill="#0C414F"/>
<path d="M50.3354 97.2911C47.0472 97.2911 44.3834 94.6263 44.3834 91.3369C44.3834 88.0475 47.0472 85.3827 50.3354 85.3827C53.6236 85.3827 56.2794 88.0475 56.2794 91.3369C56.2794 94.6263 53.6236 97.2911 50.3354 97.2911Z" fill="#EBD6CB"/>
<path d="M43.1188 112.299C28.4247 137.855 20.1884 164.74 6.93292 192.645C6.83807 193.009 6.46662 193.23 6.09512 193.135C5.82637 193.064 5.63667 192.7 5.60506 192.431C6.46662 177.431 10.2448 162.526 12.877 147.186C15.7146 131.814 26.2747 119.526 32.6298 105.625C34.0604 102.502 37.7518 101.126 40.874 102.549C44.0041 103.981 45.3794 107.681 43.9488 110.805C43.8697 110.979 43.7827 111.145 43.6878 111.311L43.1188 112.299Z" fill="#EBD6CB"/>
<path d="M341.869 112.378C323.5 99.6395 305.122 89.4708 285.772 80.3853C266.533 71.7189 245.721 63.2977 223.51 62.6572C212.263 63.0921 202.501 72.1064 191.775 71.2208C181.262 72.3357 169.485 71.2603 159.225 75.5223C152.222 86.8851 142.823 90.7043 133.473 95.9705L105.144 112.378L104.195 111.429C109.965 101.561 117.735 92.95 126.794 85.9916C135.733 79.0253 145.819 72.391 159.146 75.3326C169.2 71.1575 178.582 63.6772 189.656 60.5143C200.509 55.3588 212.753 62.2381 223.51 62.6572C245.302 62.0009 268.486 62.2302 289.891 70.4696C311.208 78.2266 330.084 93.029 342.818 111.429L341.869 112.378Z" fill="#EBD6CB"/>
<path d="M349.086 341.507C360.176 323.06 368.499 304.77 376.909 286.014C385.572 267.479 391.239 246.335 387.287 225.618C386.726 215.228 383.043 205.494 382.347 195.254C381.564 185.054 382.355 173.636 377.581 164.084C364.989 158.304 363.511 148.19 357.559 139.65L341.869 112.378L342.818 111.429C352.366 116.885 360.705 124.279 367.471 132.905C373.399 141.833 382.157 150.309 377.96 163.918C381.588 173.747 388.923 182.516 392.733 192.937C396.63 203.312 395.602 214.635 395.658 225.357C393.018 246.873 392.148 268.231 386.441 289.446C380.592 310.471 366.918 329.132 350.09 342.393L349.086 341.507Z" fill="#EBD6CB"/>
<path d="M145.954 379.225C164.284 384.475 181.634 387.82 199.284 392.043C216.8 396.439 235.881 398.471 253.523 392.675C288.223 380.561 319.105 364.47 349.086 341.507L350.09 342.393C330.858 375.445 293.503 398.376 254.796 399.547C235.802 400.527 217.124 403.113 197.79 402.069C178.582 400.804 160.023 392.454 145.329 380.403L145.954 379.225Z" fill="#EBD6CB"/>
<path d="M58.1686 204.506C60.4055 222.487 60.7296 238.776 62.4211 255.8C63.172 272.706 66.3574 290.466 77.0282 304.351C81.1226 311.894 87.4777 317.809 91.1848 325.479C95.2397 332.849 97.5399 342.274 103.745 348.521C115.609 348.806 122.043 353.542 128.145 359.48C134.469 365.055 140.31 371.499 145.954 379.225L145.329 380.403C136.927 377.786 128.714 373.888 120.992 369.127C113.182 364.565 105.104 359.48 103.547 348.711C97.4924 342.535 88.5764 338.518 82.4505 331.734C76.0006 325.21 73.2816 316.156 69.5587 308.107C64.5474 290.814 56.9671 274.936 52.4063 257.342C47.4504 239.772 51.4894 221.024 56.8485 204.3L58.1686 204.506Z" fill="#EBD6CB"/>
<path d="M105.144 112.378C101.642 121.321 97.9192 128.912 91.6669 134.914C85.2249 140.71 78.617 147.099 77.0361 156.034C72.7836 173.351 71.0051 189.166 58.1686 204.506L56.8485 204.3C55.2598 186.43 57.9551 166.496 70.5151 152.697C76.9729 146.008 79.5418 137.334 83.4781 128.944C87.533 120.712 95.3187 114.956 104.195 111.429L105.144 112.378Z" fill="#EBD6CB"/>
<g clip-path="url(#clip0_4_83)">
<path d="M239.257 337.343C230.668 345.144 217.445 345.144 208.856 337.23L207.612 336.099C148.279 282.396 109.515 247.235 110.984 203.368C111.662 184.148 121.494 165.72 137.429 154.866C167.266 134.516 204.109 144.013 224 167.303C243.89 144.013 280.734 134.403 310.57 154.866C326.505 165.72 336.337 184.148 337.016 203.368C338.598 247.235 299.72 282.396 240.387 336.325L239.257 337.343Z" fill="#8FBEDC"/>
</g>
<defs>
<clipPath id="clip0_4_83">
<rect width="271.238" height="271.341" fill="white" transform="translate(88.381 109.756)"/>
</clipPath>
</defs>
</svg>
