<svg width="439" height="525" viewBox="0 0 439 525" fill="none" xmlns="http://www.w3.org/2000/svg">
<path d="M373.468 162.506C369.778 158.971 365.612 155.868 361.925 152.332C357.11 147.714 353.483 142.422 350.985 136.392C348.383 130.109 346.849 123.469 345.415 116.879C342.421 103.13 340.268 89.1397 335.403 75.822C319.6 32.5658 272.347 2.01486 224.332 0.0926323C219.416 -0.104203 214.486 0.0095087 209.589 0.463919C182.909 2.94194 158.655 16.2555 140.827 34.7566C124.072 52.1438 112.687 73.6568 106.032 96.1791C104.063 102.845 102.497 109.615 101.323 116.445C100.178 123.105 99.4885 129.821 98.5247 136.505C97.5516 143.253 96.2832 149.999 93.9501 156.462C91.7412 162.583 88.4651 168.224 84.5584 173.524C77.3903 183.249 68.6132 191.826 61.7841 201.784C55.7903 210.524 50.3412 220.102 47.556 230.225C46.4685 234.179 44.3561 241.049 48.4014 242.987C52.8072 245.098 62.631 243.861 67.6067 244.068C80.401 244.599 93.208 244.789 106.013 244.899C130.202 245.108 154.396 244.861 178.581 244.417C202.368 243.981 226.152 243.337 249.929 242.558C268.517 241.948 287.103 241.255 305.685 240.479C311.532 240.234 317.378 239.982 323.223 239.718C325.023 239.637 326.822 239.555 328.622 239.471C329.483 239.431 330.642 239.569 331.474 239.337C331.593 239.304 331.795 239.335 331.87 239.344C333.357 231.357 334.317 223.263 334.904 215.174C335.216 210.877 335.408 206.573 335.481 202.266C335.515 200.256 335.522 198.245 335.503 196.234C335.493 195.086 335.474 193.938 335.446 192.79C335.428 192.033 335.175 190.934 335.408 190.204C335.863 191.131 336.518 191.987 337.076 192.862C338.584 195.222 340.032 197.615 341.412 200.045C344.14 204.849 346.608 209.786 348.801 214.828C352.007 222.198 354.442 229.776 356.682 237.445C362.656 236.94 368.638 236.438 374.614 235.926C379.698 235.49 384.782 235.051 389.865 234.601C392.313 234.385 394.76 234.166 397.208 233.944C398.227 233.851 399.248 233.759 400.267 233.663C400.742 233.619 401.23 233.604 401.701 233.538C402.531 233.422 402.576 233.385 402.497 232.557C401.603 223.173 398.887 213.701 396.014 204.713C392.799 194.657 388.842 184.682 383.418 175.484C381.097 171.547 378.48 167.711 375.294 164.34C374.703 163.714 374.093 163.104 373.468 162.506Z" fill="#07334C"/>
<path d="M278.884 173.857H172.083V285.194H278.884V173.857Z" fill="#E9FBFD"/>
<path d="M272.683 194.079C270.151 196.002 267.599 197.91 265.035 199.796C259.706 203.717 253.934 207.089 248.034 210.188C242.117 213.297 236.042 216.145 229.805 218.64C223.642 221.105 217.284 223.338 210.779 224.861C205.931 225.997 200.951 226.846 195.947 227.134C201.964 228.489 208.077 229.483 214.229 230.121C229.979 231.753 260.176 221.302 268.741 217.742C272.203 216.302 275.587 214.704 278.883 212.965V188.921C276.932 190.757 274.829 192.448 272.683 194.079Z" fill="#07334C"/>
<path d="M278.884 173.857H172.083V285.194H278.884V173.857Z" stroke="#07334C" stroke-width="2.2" stroke-miterlimit="10" stroke-linecap="round" stroke-linejoin="round"/>
<path d="M305.882 105.542C322.842 103.198 336.181 117.635 334.376 132.937C331.56 156.796 299.106 158.415 280.933 149.907" fill="#E9FBFD"/>
<path d="M305.882 105.542C322.842 103.198 336.181 117.635 334.376 132.937C331.56 156.796 299.106 158.415 280.933 149.907" stroke="#07334C" stroke-width="2.2" stroke-miterlimit="10" stroke-linecap="round" stroke-linejoin="round"/>
<path d="M300.436 130.181L321.284 130.223" stroke="#07334C" stroke-width="2.2" stroke-miterlimit="10" stroke-linecap="round" stroke-linejoin="round"/>
<path d="M307.881 74.2685C302.798 54.1502 289.87 36.1615 272.935 23.1567C255.034 9.41022 232.024 0.826659 208.704 2.72331C195.508 3.79654 182.464 8.09128 171.872 15.6619C165.801 20.0014 160.718 25.4333 156.103 31.1105C147.317 41.9158 140.667 54.0648 134.514 66.3293C129.405 76.5127 124.892 86.9792 121.438 97.7685C115.223 117.185 112.533 137.451 113.496 157.587C114.393 176.316 119.08 194.858 132.461 209.28C140.336 217.768 150.496 224.169 161.711 228.066C191.648 238.465 229.831 234.424 256.715 218.246C280.52 203.921 294.386 179.105 303.53 154.206C312.908 128.666 314.528 100.573 307.881 74.2685Z" fill="#E9FBFD"/>
<path d="M307.881 74.2689C302.798 54.1506 289.87 36.1619 272.935 23.1571C255.034 9.41064 232.024 0.827086 208.704 2.72373C195.508 3.79696 182.464 8.09171 171.872 15.6623C165.801 20.0018 160.718 25.4337 156.103 31.1109C147.317 41.9163 140.667 54.0652 134.514 66.3298C129.405 76.5131 124.892 86.9796 121.438 97.769C115.223 117.186 112.533 137.451 113.496 157.587C114.393 176.317 119.08 194.858 132.461 209.281C140.336 217.768 150.496 224.169 161.711 228.066C191.648 238.466 229.831 234.424 256.715 218.247C280.52 203.922 294.386 179.106 303.53 154.206C312.908 128.666 314.528 100.573 307.881 74.2689Z" stroke="#07334C" stroke-width="2.2" stroke-miterlimit="10" stroke-linecap="round" stroke-linejoin="round"/>
<path d="M150.347 149.443C161.154 149.443 169.914 144.849 169.914 139.182C169.914 133.515 161.154 128.921 150.347 128.921C139.54 128.921 130.78 133.515 130.78 139.182C130.78 144.849 139.54 149.443 150.347 149.443Z" fill="#EBD6CB"/>
<path d="M243.729 149.443C254.536 149.443 263.297 144.849 263.297 139.182C263.297 133.515 254.536 128.921 243.729 128.921C232.923 128.921 224.162 133.515 224.162 139.182C224.162 144.849 232.923 149.443 243.729 149.443Z" fill="#EBD6CB"/>
<path d="M237.01 116.462C236.446 113.732 234.772 111.169 232.276 109.681C229.78 108.194 226.465 107.889 223.819 109.124C220.743 110.56 218.989 113.759 218.365 116.938" stroke="#07334C" stroke-width="2.2" stroke-miterlimit="10" stroke-linecap="round" stroke-linejoin="round"/>
<path d="M171.522 118.129C170.958 115.4 169.284 112.837 166.788 111.349C164.292 109.862 160.977 109.557 158.331 110.792C155.255 112.228 153.501 115.427 152.877 118.606" stroke="#07334C" stroke-width="2.2" stroke-miterlimit="10" stroke-linecap="round" stroke-linejoin="round"/>
<path d="M221.517 84.3074C229.62 85.6925 237.729 87.0786 245.731 88.9122C247.144 89.236 248.593 89.5909 249.762 90.4038C250.932 91.2167 251.771 92.6041 251.462 93.9422C251.16 95.2506 249.841 96.1777 248.46 96.4942C247.078 96.8107 245.63 96.6331 244.221 96.454C236.77 95.5073 229.284 94.5538 222.075 92.5439C220.035 91.9753 217.91 91.2528 216.566 89.7005C215.222 88.1482 215.066 85.5208 216.783 84.3375C218.109 83.4232 219.937 83.679 221.55 83.9754C223.948 84.4161 226.345 84.8568 228.743 85.2975" fill="#07334C"/>
<path d="M148.764 90.2622C156.786 88.5076 164.814 86.752 172.933 85.4477C174.366 85.2175 175.845 85.002 177.262 85.3116C178.679 85.6212 180.033 86.5816 180.313 87.9252C180.587 89.2387 179.767 90.5827 178.632 91.3892C177.497 92.1958 176.092 92.5735 174.723 92.9352C167.485 94.8482 160.211 96.7682 152.747 97.6154C150.635 97.8551 148.38 97.9853 146.492 97.0623C144.604 96.1393 143.355 93.7851 144.433 92.0583C145.265 90.7239 147.051 90.2759 148.657 89.9457C151.044 89.4547 153.43 88.9642 155.817 88.4733" fill="#07334C"/>
<path d="M201.6 133.679C200.341 136.644 197.347 139.057 193.958 139.179C190.569 139.301 187.147 136.687 187.124 133.494C187.103 130.483 189.703 128.13 191.412 125.585C193.633 122.277 194.453 118.158 193.654 114.317" stroke="#07334C" stroke-width="2.2" stroke-miterlimit="10" stroke-linecap="round" stroke-linejoin="round"/>
<path d="M210.246 141.868C211.653 144.069 212.578 146.612 212.423 149.176C212.268 151.741 210.917 154.309 208.585 155.643C207.689 156.155 206.661 156.479 205.612 156.5C203.018 156.554 200.773 154.802 199.167 152.883C198.019 151.509 197.057 149.997 196.313 148.396C198.882 149.948 202.338 150.094 205.044 148.766C207.75 147.438 209.602 144.687 209.722 141.815" fill="#07334C"/>
<path d="M311.26 71.1789C305.779 49.981 292.611 30.371 273.413 17.885C271.439 16.6008 269.404 15.3992 267.312 14.2913C253.614 7.03673 237.932 3.35578 222.333 2.26747C214.875 1.7473 207.337 1.97153 199.96 3.15984C190.999 4.60391 182.702 8.18393 174.688 12.0928C169.018 14.8585 163.753 18.3257 158.828 22.1419C145.865 32.1864 137.835 44.7592 130.837 58.9486C127.679 65.351 124.527 71.7552 121.365 78.1558C121.251 78.3873 119.537 82.1966 119.385 82.1642C141.458 86.911 178.342 72.3229 193.427 56.4258C204.013 45.2702 211.097 31.7283 216.299 17.5014C219.232 34.6443 226.948 52.1548 238.293 63.4754C254.73 79.8757 292.119 94.056 316.05 93.186C314.441 85.8497 313.137 78.4375 311.26 71.1789Z" fill="#07334C"/>
<path d="M315.044 265.356C291.766 265.619 256.607 264.813 233.839 267.33C216.01 266.991 206.511 268.904 178.421 268.904C117.797 268.904 78.2697 293.278 64.206 324.994C34.1059 392.876 17.9031 441.435 0.000183105 515.515H438.408C418.098 411.747 405.218 264.335 315.044 265.356Z" fill="#8FBEDC"/>
<mask id="mask0_4_191" style="mask-type:luminance" maskUnits="userSpaceOnUse" x="0" y="265" width="439" height="251">
<path d="M315.044 265.353C291.765 265.616 256.607 264.81 233.839 267.327C216.01 266.988 206.51 268.901 178.421 268.901C117.797 268.901 78.2696 293.275 64.2058 324.991C34.1057 392.872 17.9029 441.432 0 515.512H438.408C418.098 411.743 405.218 264.331 315.044 265.353Z" fill="white"/>
</mask>
<g mask="url(#mask0_4_191)">
<path d="M12.0466 343.871C9.64611 368.109 7.94113 390.841 37.6983 397.049C50.9534 399.814 63.9568 395.57 75.929 390.447C97.7822 381.095 116.774 367.605 134.999 353.056C158.425 334.356 184.317 303.872 177.789 272.632C176.399 265.977 172.923 258.907 164.721 259.152C146.065 259.711 128.756 286.797 121.512 299.527C102.826 332.362 91.3013 378.271 101.144 414.828C105.137 429.657 112.282 439.817 128.028 445.081C140.033 449.095 154.074 448.725 166.461 446.433C194.593 441.228 227.749 415.747 232.7 387.618C233.556 382.758 233.974 380.933 228.763 380.955C225.323 380.969 216.67 390.206 215.258 391.48C207.09 398.852 199.327 406.543 193.105 415.476C179.71 434.707 165.101 465.67 180.068 487.514C200.463 517.28 239.329 498.096 262.103 481.888C300.955 454.235 333.092 412.969 350.524 370.261C354.772 359.855 357.515 349.01 359.05 337.962C360.184 329.793 360.868 321.464 359.746 313.259C359.067 308.295 357.561 302.47 353.101 299.268C335.873 286.907 309.391 333.415 302.8 343.23C292.992 357.835 284.333 373.172 277.661 389.284C265.487 418.682 261.65 450.032 261.126 481.395C260.772 502.544 262.328 528.971 279.234 544.877C301.221 565.564 331.469 553.53 349.811 535.332C355.745 529.444 361.083 523.053 366.478 516.731C381.902 498.655 398.292 476.667 403.663 453.605C403.737 453.28 403.809 452.956 403.878 452.631C405.215 446.239 407.491 435.37 401.103 430.63C387.577 420.592 368.419 446.337 363.086 454.477C346.556 479.704 341.001 524.918 378.588 536.531C409.319 546.025 437.665 512.028 448.396 488.93C450.738 483.89 457.643 469.813 451.33 464.647C448.071 461.979 446.106 464.902 442.857 467.472C431.947 476.1 423.789 487.728 421.243 500.949C417.599 519.878 421.267 541.073 432.305 557.322C438.326 566.186 445.065 571.292 456.197 569.952" stroke="#07334C" stroke-width="5" stroke-miterlimit="10"/>
<path d="M202.877 252.231C200.246 271.213 193.843 298.248 211.164 313.482C228.428 328.666 252.714 313.397 263.98 299.013C272.476 288.164 279.886 272.898 283.217 259.865C285.004 252.878 286.687 242.295 282.843 235.492C272.813 217.737 249.063 259.649 245.826 266.369C237.036 284.622 222.873 315.639 235.395 335.566C249.442 357.92 273.21 343.689 284.377 328.452C292.654 317.16 302.328 303.219 308.144 290.71C316.269 273.239 322.763 254.723 323.753 235.539C323.876 233.144 324.18 228.796 321.229 227.718C318.918 226.875 316.556 229.147 315.467 230.826C313.619 233.677 312.575 237.016 311.612 240.207C308.822 249.453 309.468 258.533 314.938 266.957C320.367 275.319 329.148 282.706 339.361 285.28C354.193 289.018 371.952 285.764 385.176 278.816" stroke="#07334C" stroke-width="5" stroke-miterlimit="10"/>
<path d="M-25.5825 453.381C-19.5673 462.907 -16.1137 471.91 -4.8764 475.577C1.45115 477.641 7.41685 479.006 14.129 479.189C25.8228 479.507 35.4458 477.302 45.6858 472.055C56.4773 466.526 64.8479 458.998 71.1046 448.943C73.0716 445.783 77.6815 438.037 75.4299 434.151C73.1332 430.187 70.1069 434.362 67.3183 437.321C57.4741 447.77 48.6577 461.37 43.7441 474.546C36.3533 494.363 41.3281 514.978 67.2164 516.618C91.7016 518.169 110.673 495.365 120.335 477.143C122.805 472.485 130.462 446.333 117.745 459.418C99.6492 478.037 87.0125 506.273 98.9012 530.987C106.623 547.039 132.831 562.803 151.489 559.587" stroke="#07334C" stroke-width="5" stroke-miterlimit="10"/>
</g>
<path d="M117.404 364.648L94.3696 523.266" stroke="#07334C" stroke-width="2.2" stroke-miterlimit="10" stroke-linecap="round" stroke-linejoin="round"/>
<path d="M323.022 360.244L346.057 518.862" stroke="#07334C" stroke-width="2.2" stroke-miterlimit="10" stroke-linecap="round" stroke-linejoin="round"/>
</svg>
