<svg width="77" height="77" viewBox="0 0 77 77" fill="none" xmlns="http://www.w3.org/2000/svg">
<path d="M9.11215 0C4.10135 0 0 4.12457 0 9.16375V67.8117C0 72.8509 4.10135 76.9755 9.11215 76.9755H39.7873C39.9842 77.0082 40.185 77.0082 40.3818 76.9755H50.7219C50.9187 77.0082 51.1195 77.0082 51.3163 76.9755H67.4299C72.4407 76.9755 76.5421 72.8509 76.5421 67.8117V9.16375C76.5421 4.12457 72.4407 0 67.4299 0H9.11215ZM9.11215 3.6655H67.4299C70.4706 3.6655 72.8972 6.10583 72.8972 9.16375V67.8117C72.8972 70.8696 70.4706 73.31 67.4299 73.31H52.8505V47.6515H59.8127L62.3648 34.8222H52.8505V31.1567C52.8505 30.135 52.9471 30.0551 53.2883 29.8323C53.6294 29.6095 54.6835 29.324 56.4953 29.324H61.9626V19.004L60.9233 18.5065C60.9233 18.5065 56.7371 16.4947 51.028 16.4947C46.9276 16.4947 43.559 18.1377 41.4033 20.8475C39.2477 23.5573 38.271 27.1858 38.271 31.1567V34.8222H32.8037V47.6515H38.271V73.31H9.11215C6.07145 73.31 3.64486 70.8696 3.64486 67.8117V9.16375C3.64486 6.10583 6.07145 3.6655 9.11215 3.6655ZM51.028 20.1602C54.817 20.1602 57.2013 21.0005 58.3178 21.4453V25.6585H56.4953C54.398 25.6585 52.7173 25.833 51.3021 26.7574C49.8869 27.6819 49.2056 29.4367 49.2056 31.1567V38.4877H57.9155L56.8228 43.986H49.2056V73.31H41.9159V43.986H36.4486V38.4877H41.9159V31.1567C41.9159 27.7967 42.7617 25.0105 44.2509 23.1385C45.7401 21.2664 47.8388 20.1602 51.028 20.1602Z" fill="#175070"/>
</svg>
