<svg width="450" height="672" viewBox="0 0 450 672" fill="none" xmlns="http://www.w3.org/2000/svg">
<path d="M355.939 271.673C366.653 268.599 374.526 261.007 381.458 252.496C365.726 247.014 347.043 245.214 334.707 258.868C334.536 259.056 333.939 259.749 333.143 260.691L330.201 252.319C330.656 251.599 331.107 250.878 331.557 250.154C334.466 248.864 340.728 245.435 341.403 245.04C357.206 235.776 359.535 216.864 357.683 200.077C347.996 205.102 338.989 211.256 333.707 221.209C329.111 229.871 327.578 240.27 329.897 249.857C329.775 250.045 329.656 250.234 329.534 250.422L304.453 179.06C305.55 178.93 306.646 178.772 307.74 178.592C315.625 183.632 325.33 185.55 334.534 184.224C345.556 182.637 354.362 176.183 362.356 168.695C347.489 161.119 329.211 156.792 315.184 168.642C314.487 169.231 307.394 175.593 306.26 177.163C305.488 177.316 304.717 177.465 303.943 177.614L302.118 172.425C305.9 168.219 309.609 163.944 313.212 159.579C316.265 158.696 322.922 156.151 323.646 155.85C340.529 148.822 345.333 130.399 345.714 113.512C335.452 117.171 325.712 122.044 319.164 131.188C313.465 139.145 310.577 149.241 311.608 159.058C308.291 162.956 304.92 166.8 301.468 170.574L296.234 155.685C302.855 142.247 298.462 126.481 291.676 113.413C289.127 116.336 286.707 119.359 284.587 122.541L272.482 88.1082L266.186 90.9597C264.691 90.8639 262.897 90.7344 260.937 90.5832C260.648 90.5618 260.356 90.5393 260.062 90.5158C257.682 90.3302 255.096 90.119 252.523 89.9028C252.254 89.8804 251.985 89.8579 251.718 89.8355C250.471 89.7305 249.234 89.6253 248.029 89.5214C247.744 89.4969 247.462 89.4734 247.182 89.4491C244.582 89.2238 242.174 89.0126 240.222 88.8392C239.947 88.8147 239.681 88.7912 239.426 88.7677C236.97 88.5484 235.416 88.4077 235.416 88.4077C235.416 88.4077 232.826 89.6854 228.389 91.8732C225.263 84.913 223.446 80.8979 223.446 80.8979L105.995 145.132L112.897 163.667L113.349 164.88L118.46 178.604L118.884 179.743L147.813 257.426C147.829 258.399 147.846 259.372 147.868 260.346C147.467 260.177 147.041 260.089 146.593 260.117C145.279 260.2 144.212 261.329 143.768 262.587C143.759 262.61 143.752 262.633 143.744 262.656C143.636 262.76 143.545 262.874 143.476 262.994C143.222 263.435 143.198 263.934 143.179 264.421C143.086 266.669 142.788 268.895 142.873 271.118C142.889 271.536 142.909 271.963 143.106 272.35C143.225 272.582 143.426 272.801 143.678 272.945C143.9 279.549 144.048 286.04 144.339 292.512C142.734 291.28 141.12 290.062 139.499 288.853C139.199 286.357 138.728 283.885 138.146 281.441C137.767 279.827 137.327 278.228 136.841 276.643C140.646 268.006 141.153 257.979 138.567 248.91C135.473 238.051 127.945 230.105 119.52 223.119C114.222 239.131 112.572 258.116 126.095 270.555C126.767 271.174 133.966 277.414 135.655 278.331C136.051 279.493 136.442 280.658 136.831 281.824L138.979 288.466C137.436 287.32 135.887 286.184 134.332 285.056C128.818 281.178 123.228 277.409 117.534 273.811C116.245 270.865 112.83 264.528 112.435 263.844C103.211 247.854 84.5751 245.612 68.058 247.6C73.0668 257.405 79.1855 266.514 89.0197 271.813C97.5775 276.426 107.827 277.913 117.253 275.497C122.689 279.048 128.058 282.705 133.32 286.516C137.078 289.157 140.78 291.875 144.44 294.652C144.525 296.345 144.621 298.037 144.733 299.731C143.522 299.862 142.311 299.984 141.1 300.091C137.958 300.361 134.82 300.574 131.676 300.661C129.39 298.838 122.808 294.63 122.103 294.209C106.384 284.799 89.0289 292.049 75.5515 301.95C84.6255 308.038 94.336 312.972 105.467 312.742C114.939 312.546 124.394 308.942 131.424 302.452C134.724 302.335 138.02 302.034 141.273 301.475C142.456 301.277 143.634 301.048 144.804 300.787C145.25 307.164 145.923 313.563 147.032 320.078C147.848 324.88 149.37 329.574 151.063 334.226C151.626 336.405 152.277 338.457 153.003 340.447C148.786 355.509 148.439 372.397 160.827 383.791C161.5 384.41 168.699 390.65 170.388 391.567C170.784 392.729 171.175 393.893 171.564 395.06L173.712 401.702C172.168 400.556 170.621 399.42 169.064 398.292C163.55 394.414 157.961 390.644 152.267 387.045C150.978 384.1 147.562 377.764 147.167 377.08C137.944 361.09 119.309 358.849 102.79 360.837C107.8 370.641 113.919 379.749 123.753 385.048C132.31 389.661 142.56 391.149 151.985 388.732C157.422 392.284 162.79 395.941 168.054 399.753C173.796 403.786 179.41 408.005 184.942 412.335C184.091 412.437 183.242 412.537 182.393 412.636C179.3 410.144 175.057 408.994 171.573 410.739C169.826 411.614 168.46 412.667 167.412 413.864C167.078 413.877 166.743 413.887 166.408 413.897C164.122 412.073 157.541 407.866 156.835 407.445C141.117 398.035 123.761 405.284 110.284 415.186C119.358 421.275 129.068 426.208 140.199 425.978C149.636 425.784 159.055 422.205 166.077 415.761C160.064 426.562 177.19 446.079 177.664 455.643C177.906 460.525 175.579 472.393 174.712 477.631C173.754 483.43 170.425 485.863 168.541 491.401C164.27 503.957 165.331 517.886 167.412 531.009C169.344 543.18 172.542 552.962 171.573 565.252C170.998 572.539 166.995 576.257 165.59 583.426C165.317 584.817 164.405 587.176 164.248 588.604L281.506 587.515C280.322 578.307 279.641 571.524 278.942 562.445C278.068 551.116 279.948 539.647 279.627 528.288C279.53 524.848 282.359 522.415 282.042 518.989C286.23 518.897 290.408 518.15 294.368 516.776C304.901 513.122 312.362 505.109 318.833 496.233C305.54 492.398 290.351 491.215 278.942 499.127C278.4 496.667 277.801 494.219 277.145 491.789C277.811 491.377 278.284 491.079 278.441 490.974C293.731 480.861 295.054 461.85 292.317 445.19C282.911 450.734 274.241 457.372 269.494 467.599C269.325 467.964 269.161 468.333 269.004 468.701C265.327 460.377 257.504 454.021 257.572 445.545C257.584 444.137 258.186 437.805 258.429 436.28C259.185 431.561 264.264 431.032 264.829 425.958C270.091 421.738 275.235 417.367 280.277 412.876C283.07 413.155 285.877 413.237 288.682 413.186C290.541 413.158 292.398 413.06 294.251 412.905C302.751 419.339 313.589 422.397 324.147 421.731C336.789 420.934 347.345 414.416 357.073 406.648C340.878 396.702 320.53 390.132 303.573 402.297C302.729 402.902 294.122 409.47 292.7 411.149C291.331 411.307 289.96 411.458 288.588 411.608L280.834 412.379C282.458 410.929 284.072 409.464 285.673 407.989C291.315 402.753 296.83 397.374 302.174 391.828C305.733 391.096 313.458 388.832 314.301 388.557C334.071 382.122 341.146 361.662 343.068 342.541C331.107 345.759 319.629 350.4 311.394 360.174C304.234 368.674 300.067 379.849 300.363 391.067C295.116 396.314 289.781 401.465 284.328 406.486C278.468 411.925 272.474 417.211 266.382 422.381C266.739 418.861 267.1 415.368 267.554 411.891C268.039 408.282 268.585 404.689 269.269 401.122C271.832 398.996 278.063 392.618 278.7 391.928C292.889 376.535 289.266 355.165 281.782 337.511C272.874 346.233 265.069 355.959 262.561 368.568C260.424 379.299 262.021 390.855 267.373 400.395C266.683 404.145 266.195 407.935 265.998 411.741C265.8 415.349 265.826 418.968 266.176 422.557C265.789 422.885 265.404 423.212 265.016 423.539C265.152 420.192 263.145 418.363 261.644 415.266C258.131 408.018 251.838 408.635 247.008 413.936C246.516 414.478 244.131 413.57 243.713 414.163C243.511 410.2 243.31 406.238 243.109 402.273C242.508 390.382 242.493 368.618 241.069 350.25L346.633 299.07L337.299 272.515C343.46 273.703 349.91 273.402 355.939 271.672V271.673ZM174.231 402.089C173.932 399.594 173.461 397.122 172.878 394.678C172.499 393.064 172.06 391.465 171.573 389.88C172.729 387.26 173.579 384.511 174.132 381.699C176.973 386.634 179.637 391.692 181.63 397.382C183.148 401.718 184.385 406.157 185.327 410.659C181.684 407.732 177.978 404.882 174.231 402.089ZM184.069 414.25C183.733 413.863 183.37 413.493 182.987 413.144C183.704 412.939 184.416 412.717 185.124 412.479C185.347 412.656 185.569 412.83 185.792 413.004C186.105 414.68 186.376 416.365 186.607 418.054C185.904 416.694 185.076 415.411 184.069 414.251L184.069 414.25Z" fill="#608561"/>
<path d="M161.868 586.74C161.596 588.131 161.372 589.548 161.215 590.976H286.396C285.213 581.77 283.221 572.581 282.52 563.502C281.647 552.174 282.987 540.653 282.667 529.295C282.569 525.854 282.359 522.417 282.042 518.991C281.75 515.857 281.367 512.731 280.893 509.62C280.829 509.203 280.766 508.786 280.698 508.371C280.201 505.275 279.617 502.191 278.942 499.128C278.4 496.669 277.801 494.221 277.145 491.791C276.508 489.425 275.818 487.073 275.074 484.74C274.9 484.194 274.722 483.649 274.543 483.104C272.981 478.382 271.205 473.735 269.214 469.183C269.144 469.022 269.073 468.862 269.004 468.702C265.327 460.379 261.515 453.751 261.585 445.273C261.596 443.866 261.714 442.407 261.957 440.883C262.714 436.163 264.264 431.033 264.829 425.96C264.919 425.151 264.984 424.345 265.016 423.54C265.152 420.193 264.732 416.902 263.229 413.805C259.716 406.557 249.906 407.162 245.078 412.461C244.583 413.003 244.13 413.572 243.713 414.165C243.511 410.202 243.31 406.239 243.109 402.275C242.508 390.384 242.493 368.619 241.069 350.251C240.873 347.722 240.651 345.258 240.396 342.892C240.527 341.231 240.677 339.581 240.835 337.941C240.85 337.78 240.867 337.618 240.882 337.457C242.218 323.733 244.082 310.63 241.187 296.282C240.994 295.324 240.751 294.38 240.467 293.445C238.439 286.77 234.317 280.635 231.355 274.32C227.067 265.185 222.778 256.051 218.489 246.916C216.885 243.5 214.424 239.537 210.705 239.764C208.578 239.894 206.75 241.508 205.777 243.434C204.803 245.36 204.54 247.566 204.373 249.725C204.265 251.122 204.168 252.578 204.096 254.068C203.744 261.449 204.021 269.714 206.695 276.231C209.676 283.493 211.702 289.376 212.264 297.545C212.282 297.816 212.297 298.085 212.307 298.353C212.007 298.364 211.706 298.377 211.405 298.391C208.655 296.647 205.786 295.086 203.298 293.033C202.467 292.349 201.722 291.596 201.024 290.801C200.754 290.491 200.491 290.177 200.233 289.857C198.918 288.229 197.738 286.468 196.422 284.767C191.166 277.987 187.399 270.292 182.412 263.427C177.762 257.024 174.833 250.106 173.262 242.191C172.472 238.204 172.047 234.089 170.476 230.347C169.227 227.376 167.06 224.606 164.243 223.255C163.513 222.906 162.739 222.651 161.926 222.512C160.212 222.22 158.286 222.539 157.078 223.81C155.825 225.13 155.656 227.032 155.816 228.921C148.293 224.958 146.786 235.39 147.231 240.823C147.687 246.394 147.723 251.915 147.812 257.427C147.828 258.401 147.846 259.374 147.868 260.348C147.466 260.179 147.04 260.09 146.592 260.119C145.279 260.202 144.211 261.33 143.768 262.589C143.759 262.612 143.752 262.635 143.743 262.658C143.636 262.762 143.545 262.875 143.475 262.996C143.221 263.437 143.197 263.936 143.178 264.423C143.086 266.671 142.788 268.897 142.873 271.12C142.889 271.538 142.908 271.965 143.106 272.352C143.224 272.584 143.425 272.803 143.677 272.947C143.899 279.55 144.048 286.041 144.338 292.514C144.37 293.228 144.404 293.941 144.44 294.655C144.525 296.348 144.621 298.04 144.733 299.733C144.756 300.085 144.78 300.437 144.804 300.789C145.25 307.166 145.923 313.565 147.032 320.081C147.848 324.882 149.37 329.576 151.063 334.229C151.626 336.407 152.277 338.46 153.003 340.449C153.318 341.311 153.646 342.164 153.99 343.007C154.569 344.433 155.187 345.837 155.837 347.242C155.881 347.376 155.926 347.511 155.97 347.643C156.494 349.232 157.111 350.931 158.199 352.131C158.624 352.982 159.058 353.845 159.501 354.723C161.363 358.41 163.224 362.094 165.086 365.781C167.905 371.356 171.118 376.459 174.132 381.7C176.973 386.635 179.637 391.693 181.63 397.384C183.149 401.719 184.385 406.158 185.328 410.661C185.493 411.44 185.647 412.222 185.793 413.005C186.105 414.681 186.376 416.365 186.607 418.055C185.904 416.695 185.077 415.412 184.07 414.251C183.733 413.864 183.371 413.494 182.987 413.145C182.795 412.971 182.597 412.803 182.393 412.639C179.301 410.147 175.058 408.998 171.573 410.742C169.827 411.618 168.46 412.67 167.413 413.867C166.909 414.443 166.48 415.053 166.118 415.694C166.103 415.716 166.089 415.741 166.077 415.764C160.064 426.565 173.145 445.718 173.619 455.28C173.861 460.165 170.425 468.138 169.559 473.373C168.602 479.172 166.056 484.072 164.173 489.61C159.903 502.168 158.661 515.805 160.743 528.927C162.674 541.099 167.363 553.035 166.396 565.326C165.821 572.611 163.274 579.572 161.869 586.741L161.868 586.74Z" fill="#E3A78A"/>
<path d="M337.299 272.517L335.465 267.296L334.89 265.659L333.143 260.691L330.201 252.32L329.534 250.423L304.452 179.061L303.943 177.615L302.117 172.426L301.468 170.575L296.234 155.686L284.586 122.542L272.481 88.109L266.185 90.9604C264.691 90.8646 262.896 90.7351 260.936 90.584C260.648 90.5626 260.356 90.5401 260.061 90.5166C257.681 90.331 255.096 90.1198 252.522 89.9036C252.254 89.8812 251.985 89.8587 251.718 89.8363C250.47 89.7313 249.233 89.6261 248.028 89.5222C247.744 89.4977 247.462 89.4742 247.181 89.4499C244.582 89.2246 242.174 89.0134 240.221 88.84C239.946 88.8155 239.68 88.792 239.425 88.7685C236.97 88.5492 235.469 89.0021 235.469 89.0021C235.469 89.0021 233.259 90.5166 228.389 91.8739C225.263 84.9137 223.446 80.8987 223.446 80.8987L105.994 145.133L112.896 163.668L113.348 164.88L118.46 178.605L118.883 179.744L147.812 257.426C147.723 251.914 147.687 246.393 147.231 240.822C146.786 235.389 148.293 224.957 155.816 228.92C155.656 227.031 155.825 225.129 157.078 223.809C158.286 222.539 160.212 222.219 161.926 222.511C162.739 222.649 163.513 222.905 164.243 223.254C167.06 224.605 169.227 227.375 170.476 230.346C172.047 234.088 172.472 238.203 173.262 242.19C174.832 250.105 177.762 257.022 182.412 263.426C187.399 270.291 191.166 277.986 196.422 284.766C197.738 286.466 198.918 288.228 200.233 289.856C200.491 290.177 200.754 290.491 201.024 290.8C201.722 291.595 202.467 292.348 203.298 293.032C205.786 295.085 208.655 296.646 211.406 298.39C211.706 298.376 212.007 298.363 212.307 298.352C212.297 298.084 212.282 297.815 212.264 297.544C211.702 289.375 209.676 283.492 206.695 276.23C204.021 269.712 203.744 261.448 204.096 254.067C204.168 252.576 204.265 251.121 204.373 249.724C204.54 247.565 204.803 245.359 205.777 243.433C206.75 241.507 208.578 239.893 210.705 239.763C214.424 239.536 216.885 243.499 218.489 246.915C222.778 256.05 227.067 265.184 231.355 274.319C234.317 280.634 238.439 286.769 240.467 293.444C240.751 294.379 240.994 295.323 241.187 296.28C244.082 310.629 242.218 323.732 240.882 337.455C240.867 337.617 240.85 337.779 240.835 337.94C240.677 339.58 240.527 341.23 240.396 342.891C240.651 345.257 240.873 347.721 241.069 350.25L346.633 299.071L337.299 272.516V272.517Z" fill="#005072"/>
<path d="M146.455 176.424L146.15 175.622L141.798 164.165L141.505 163.391L136.333 149.777C132.827 150.984 129.682 151.706 126.867 152.066C126.494 152.114 126.127 152.154 125.766 152.189C123.817 152.379 122.034 152.391 120.411 152.27C120.166 152.252 119.923 152.231 119.684 152.206C117.913 152.026 116.34 151.687 114.949 151.249C114.767 151.193 114.589 151.135 114.413 151.074C112.943 150.57 111.69 149.959 110.636 149.324C107.358 147.347 105.994 145.133 105.994 145.133L112.896 163.668L113.348 164.881L118.46 178.606L118.883 179.745L147.812 257.427C147.723 251.915 147.687 246.393 147.231 240.822C146.786 235.39 148.293 224.958 155.816 228.921C155.656 227.031 155.825 225.129 157.078 223.81C158.286 222.539 160.212 222.22 161.926 222.511C162.739 222.65 163.513 222.905 164.243 223.255L146.455 176.424V176.424Z" fill="#005072"/>
<path d="M260.936 90.584C260.648 90.5626 260.356 90.5401 260.061 90.5166C257.681 90.331 255.096 90.1198 252.522 89.9036C252.254 89.8812 251.985 89.8587 251.718 89.8363C250.47 89.7313 249.233 89.6261 248.028 89.5222C247.744 89.4976 247.462 89.4741 247.181 89.4499C244.582 89.2246 242.174 89.0134 240.221 88.84C239.946 88.8155 239.68 88.792 239.425 88.7685C236.97 88.5492 235.415 88.4084 235.415 88.4084C235.415 88.4084 232.825 89.6861 228.389 91.8739C226.487 92.8112 224.246 93.9155 221.724 95.1587C220.239 91.8904 219.416 90.0924 219.416 90.0924L122.963 143.49C117.389 146.171 113.086 148.21 110.636 149.323C111.69 149.959 112.943 150.569 114.413 151.073C114.589 151.134 114.767 151.192 114.949 151.249C116.34 151.686 117.913 152.026 119.684 152.205C119.923 152.231 120.166 152.251 120.411 152.269C122.034 152.391 123.817 152.378 125.766 152.189C126.127 152.154 126.494 152.113 126.867 152.065C129.682 151.705 132.827 150.983 136.333 149.777L148.966 144.054L153.888 141.825L266.185 90.9599C264.691 90.8641 262.896 90.7346 260.936 90.5834L260.936 90.584Z" fill="#E9B79A"/>
<path d="M260.936 90.584C260.648 90.5626 260.356 90.5401 260.061 90.5166C257.681 90.331 255.096 90.1198 252.522 89.9036C252.254 89.8812 251.985 89.8587 251.718 89.8363C250.47 89.7313 249.233 89.6261 248.028 89.5222C247.744 89.4976 247.462 89.4741 247.181 89.4499C244.582 89.2246 242.174 89.0134 240.221 88.84C239.946 88.8155 239.68 88.792 239.425 88.7685C236.97 88.5492 235.415 88.4084 235.415 88.4084C235.415 88.4084 232.825 89.6861 228.389 91.8739C226.487 92.8112 224.246 93.9155 221.724 95.1587C197.6 107.047 147.729 131.582 122.963 143.49C117.389 146.171 113.086 148.21 110.636 149.323C111.69 149.959 112.943 150.569 114.413 151.073C114.589 151.134 114.767 151.192 114.949 151.249C116.34 151.686 117.913 152.026 119.684 152.205C119.923 152.231 120.166 152.251 120.411 152.269C122.034 152.391 123.817 152.378 125.766 152.189C126.127 152.154 126.494 152.113 126.867 152.065C129.682 151.705 132.827 150.983 136.333 149.777L148.966 144.054L153.888 141.825L266.185 90.9599C264.691 90.8641 262.896 90.7346 260.936 90.5834L260.936 90.584Z" fill="#EBD0BD"/>
<path d="M161.868 586.74C161.596 588.131 161.372 589.548 161.215 590.976H286.396C285.213 581.77 283.221 572.581 282.52 563.502C281.647 552.174 282.987 540.653 282.667 529.294C282.569 525.854 282.359 522.417 282.042 518.991C281.75 515.857 281.367 512.731 280.893 509.62C280.829 509.203 280.766 508.786 280.698 508.371C280.201 505.275 279.617 502.191 278.942 499.128C278.4 496.669 277.801 494.221 277.145 491.791C276.508 489.425 275.818 487.073 275.074 484.74C274.9 484.194 274.722 483.649 274.543 483.104C272.981 478.382 271.205 473.735 269.214 469.183C269.144 469.022 269.073 468.861 269.004 468.702C265.327 460.378 261.515 453.751 261.585 445.273C261.596 443.866 261.714 442.407 261.957 440.883C262.714 436.163 264.264 431.033 264.829 425.96C264.919 425.151 264.984 424.345 265.016 423.54C265.152 420.193 264.732 416.902 263.229 413.805C259.716 406.557 249.906 407.162 245.078 412.461C244.583 413.002 244.13 413.572 243.713 414.165C241.14 417.805 239.875 422.328 238.693 426.694C238.67 422.956 238.634 419.13 237.372 415.618C236.111 412.106 233.361 408.907 229.747 408.2C225.306 407.333 220.867 410.503 218.722 414.544C216.576 418.586 216.207 423.323 215.88 427.903C215.454 423.456 214.995 418.888 212.999 414.905C211.003 410.922 207.092 407.601 202.693 407.691C198.506 407.779 194.856 410.933 192.908 414.697C190.96 418.463 190.392 422.783 189.855 427.001C188.972 423.958 188.05 420.845 186.606 418.055C185.904 416.694 185.076 415.411 184.069 414.251C183.732 413.863 183.37 413.493 182.986 413.144C182.795 412.97 182.596 412.802 182.393 412.639C179.3 410.146 175.057 408.997 171.572 410.742C169.826 411.617 168.459 412.669 167.412 413.867C166.908 414.443 166.479 415.053 166.117 415.693C166.103 415.716 166.089 415.74 166.077 415.764C160.063 426.564 173.144 445.717 173.618 455.279C173.86 460.164 170.424 468.137 169.558 473.373C168.601 479.172 166.056 484.072 164.173 489.609C159.902 502.167 158.66 515.804 160.742 528.926C162.673 541.099 167.362 553.035 166.395 565.325C165.821 572.611 163.274 579.571 161.868 586.74L161.868 586.74Z" fill="#E0E0E0"/>
<path d="M309.046 408.791L319.283 406.993C316.075 408.385 312.748 409.464 309.371 410.343C305.996 411.237 302.563 411.886 299.108 412.379C297.494 412.592 295.874 412.77 294.251 412.906C302.75 419.34 313.589 422.398 324.147 421.732C336.789 420.935 347.345 414.417 357.073 406.65C340.878 396.703 320.53 390.133 303.573 402.298C302.729 402.903 294.121 409.471 292.7 411.15C294.751 410.912 296.798 410.658 298.838 410.365C302.25 409.913 305.646 409.359 309.046 408.791Z" fill="#739A65"/>
<path d="M270.421 388.71C271.67 385.002 273.167 381.378 275.01 377.94C273.934 381.697 272.864 385.417 271.913 389.164C270.973 392.912 270.105 396.672 269.396 400.461C269.354 400.682 269.312 400.903 269.269 401.123C271.831 398.997 278.062 392.619 278.699 391.93C292.889 376.536 289.265 355.166 281.782 337.512C272.874 346.235 265.069 355.961 262.56 368.57C260.424 379.3 262.021 390.857 267.373 400.396C267.393 400.288 267.412 400.18 267.432 400.073C268.192 396.225 269.159 392.417 270.421 388.71Z" fill="#739A65"/>
<path d="M280.277 412.878C283.069 413.156 285.877 413.239 288.682 413.188C290.541 413.159 292.397 413.061 294.251 412.906C295.874 412.771 297.494 412.592 299.109 412.379C302.563 411.886 305.997 411.237 309.372 410.343C312.748 409.464 316.076 408.385 319.283 406.993L309.046 408.791C305.646 409.359 302.25 409.913 298.839 410.365C296.798 410.659 294.752 410.913 292.7 411.15C291.331 411.308 289.961 411.459 288.588 411.609L280.834 412.38C282.458 410.93 284.072 409.465 285.674 407.99C291.315 402.754 296.83 397.376 302.174 391.829C304.74 389.167 307.267 386.467 309.749 383.727L315.43 377.333L320.99 370.835L326.366 364.183C328.126 361.937 329.864 359.678 331.589 357.408C329.697 359.539 327.818 361.678 325.961 363.834L320.253 370.176L314.495 376.466L308.632 382.65C305.898 385.48 303.142 388.288 300.363 391.068C295.116 396.315 289.781 401.466 284.328 406.488C278.469 411.926 272.475 417.212 266.382 422.383C266.74 418.862 267.1 415.369 267.554 411.893C268.039 408.284 268.585 404.691 269.269 401.123C269.312 400.903 269.355 400.682 269.397 400.462C270.106 396.672 270.973 392.913 271.913 389.164C272.864 385.417 273.935 381.697 275.01 377.94C273.167 381.378 271.67 385.002 270.421 388.71C269.16 392.417 268.193 396.225 267.433 400.073C267.413 400.18 267.394 400.288 267.373 400.396C266.683 404.146 266.196 407.937 265.999 411.743C265.801 415.351 265.827 418.969 266.176 422.559C265.79 422.886 265.404 423.214 265.016 423.54C264.984 424.345 264.919 425.151 264.83 425.96C270.092 421.74 275.235 417.368 280.277 412.878H280.277Z" fill="#693E49"/>
<path d="M130.53 264.544L127.051 255.971C128.84 258.499 130.39 261.192 131.78 263.963C133.18 266.732 134.387 269.6 135.465 272.513C135.953 273.88 136.415 275.257 136.841 276.644C140.646 268.007 141.153 257.98 138.567 248.911C135.472 238.052 127.945 230.105 119.519 223.12C114.222 239.132 112.571 258.117 126.095 270.556C126.767 271.175 133.966 277.415 135.655 278.332C135.061 276.59 134.454 274.856 133.815 273.134C132.78 270.249 131.661 267.398 130.53 264.543L130.53 264.544Z" fill="#739A65"/>
<path d="M120.971 302.037C117.599 301.66 114.252 301.051 110.994 300.103C114.374 300.322 117.72 300.539 121.068 300.651C124.414 300.752 127.755 300.788 131.092 300.678C131.287 300.673 131.481 300.668 131.676 300.662C129.389 298.839 122.808 294.631 122.103 294.21C106.383 284.8 89.0284 292.05 75.551 301.951C84.625 308.039 94.3355 312.973 105.466 312.743C114.939 312.547 124.393 308.943 131.424 302.453C131.329 302.456 131.235 302.46 131.141 302.463C127.744 302.54 124.343 302.425 120.971 302.037L120.971 302.037Z" fill="#739A65"/>
<path d="M139.499 288.854C139.199 286.358 138.728 283.886 138.145 281.442C137.766 279.827 137.327 278.228 136.841 276.644C136.415 275.257 135.953 273.88 135.465 272.513C134.386 269.6 133.18 266.732 131.779 263.963C130.39 261.192 128.84 258.499 127.05 255.971L130.53 264.544C131.661 267.398 132.779 270.249 133.815 273.135C134.453 274.856 135.061 276.591 135.654 278.333C136.05 279.494 136.441 280.659 136.83 281.825L138.978 288.467C137.436 287.321 135.886 286.185 134.332 285.057C128.818 281.179 123.227 277.41 117.533 273.812C114.789 272.077 112.021 270.382 109.225 268.735L102.736 265.012L96.1851 261.414L89.5343 258.006C87.3019 256.903 85.0597 255.821 82.8123 254.755C84.9743 255.994 87.1405 257.219 89.3187 258.424L95.7687 262.181L102.185 265.991L108.529 269.914C111.453 271.751 114.361 273.61 117.253 275.499C122.689 279.05 128.058 282.707 133.32 286.518C137.078 289.158 140.78 291.877 144.44 294.654C144.404 293.94 144.37 293.227 144.338 292.513C142.733 291.281 141.12 290.063 139.499 288.854V288.854Z" fill="#693E49"/>
<path d="M141.099 300.092C137.958 300.363 134.82 300.575 131.676 300.663C131.481 300.668 131.287 300.673 131.092 300.678C127.756 300.788 124.414 300.752 121.069 300.652C117.721 300.539 114.375 300.322 110.995 300.103C114.252 301.051 117.599 301.66 120.971 302.037C124.343 302.426 127.745 302.54 131.141 302.464C131.235 302.461 131.33 302.457 131.424 302.454C134.724 302.336 138.02 302.035 141.273 301.477C142.456 301.279 143.634 301.049 144.804 300.788C144.78 300.436 144.756 300.085 144.733 299.733C143.522 299.863 142.311 299.986 141.1 300.093L141.099 300.092Z" fill="#693E49"/>
<path d="M165.262 377.781L161.783 369.208C163.573 371.736 165.123 374.427 166.512 377.2C167.912 379.968 169.12 382.836 170.197 385.75C170.687 387.116 171.148 388.493 171.573 389.88C172.728 387.26 173.579 384.51 174.131 381.699C171.117 376.458 167.904 371.355 165.086 365.779C163.224 362.093 161.362 358.408 159.5 354.721C159.057 353.843 158.623 352.981 158.198 352.129C157.11 350.93 156.494 349.231 155.969 347.642C155.925 347.509 155.88 347.375 155.836 347.24C155.186 345.836 154.568 344.431 153.989 343.006C153.645 342.162 153.317 341.31 153.002 340.448C148.785 355.509 148.439 372.398 160.826 383.792C161.499 384.411 168.698 390.651 170.387 391.568C169.793 389.827 169.186 388.093 168.548 386.37C167.512 383.486 166.394 380.633 165.262 377.78L165.262 377.781Z" fill="#739A65"/>
<path d="M165.874 415.699C162.478 415.777 159.077 415.663 155.704 415.273C152.333 414.897 148.984 414.288 145.728 413.339C149.108 413.558 152.455 413.775 155.801 413.888C159.147 413.988 162.488 414.024 165.825 413.914C166.02 413.91 166.215 413.905 166.408 413.898C164.122 412.075 157.541 407.868 156.835 407.447C141.117 398.037 123.761 405.286 110.284 415.187C119.358 421.276 129.068 426.209 140.199 425.98C149.636 425.785 159.055 422.207 166.077 415.762C166.089 415.739 166.103 415.714 166.117 415.692C166.036 415.693 165.954 415.696 165.874 415.699V415.699Z" fill="#739A65"/>
<path d="M185.124 412.479C185.346 412.655 185.569 412.83 185.792 413.004C185.647 412.221 185.492 411.439 185.327 410.66C181.684 407.733 177.978 404.882 174.231 402.089C173.932 399.594 173.461 397.122 172.878 394.678C172.499 393.064 172.06 391.465 171.573 389.88C171.148 388.493 170.687 387.116 170.197 385.751C169.12 382.836 167.913 379.968 166.512 377.201C165.123 374.428 163.573 371.736 161.783 369.208L165.263 377.781C166.394 380.634 167.513 383.487 168.548 386.371C169.187 388.093 169.794 389.828 170.388 391.569C170.784 392.73 171.175 393.895 171.564 395.062L173.712 401.704C172.168 400.557 170.621 399.421 169.064 398.293C163.55 394.415 157.961 390.646 152.267 387.047C149.522 385.312 146.755 383.618 143.958 381.971L137.47 378.248L130.918 374.65L124.268 371.241C122.036 370.14 119.793 369.057 117.546 367.991C119.708 369.231 121.875 370.456 124.051 371.661L130.501 375.418L136.917 379.227L143.263 383.151C146.186 384.987 149.096 386.846 151.985 388.734C157.423 392.286 162.79 395.943 168.055 399.755C173.797 403.788 179.41 408.007 184.942 412.337C184.091 412.439 183.242 412.539 182.393 412.638C182.596 412.801 182.795 412.969 182.987 413.144C183.704 412.939 184.416 412.716 185.124 412.479H185.124Z" fill="#693E49"/>
<path d="M155.801 413.888C152.455 413.775 149.108 413.558 145.728 413.339C148.984 414.288 152.332 414.897 155.704 415.273C159.077 415.663 162.478 415.777 165.874 415.7C165.954 415.696 166.036 415.694 166.117 415.693C166.479 415.052 166.908 414.442 167.412 413.866C167.078 413.879 166.743 413.89 166.408 413.899C166.214 413.905 166.02 413.91 165.825 413.914C162.488 414.024 159.147 413.988 155.801 413.888Z" fill="#693E49"/>
<path d="M286.878 505.429C284.976 506.963 282.967 508.346 280.894 509.62C281.368 512.731 281.75 515.858 282.042 518.992C286.23 518.899 290.408 518.152 294.368 516.779C304.901 513.125 312.362 505.111 318.833 496.236C305.541 492.4 290.351 491.217 278.942 499.129C279.617 502.191 280.202 505.275 280.699 508.371L286.878 505.429Z" fill="#739A65"/>
<path d="M280.064 474.376L283.103 467.469C284.08 465.153 285.039 462.828 285.981 460.498C284.864 462.75 283.76 465.005 282.679 467.27L279.288 473.991L275.845 480.68L274.543 483.104C274.722 483.648 274.9 484.194 275.074 484.74L276.834 481.196L280.063 474.376H280.064Z" fill="#693E49"/>
<path d="M280.699 508.371C280.766 508.786 280.829 509.203 280.894 509.62C282.967 508.345 284.977 506.962 286.878 505.429L280.699 508.371Z" fill="#693E49"/>
<path d="M320.422 173.947L329.268 171.653C326.553 173.098 323.71 174.277 320.812 175.285C317.915 176.304 314.951 177.114 311.958 177.789C310.559 178.089 309.152 178.36 307.74 178.593C315.625 183.633 325.33 185.55 334.533 184.224C345.555 182.637 354.361 176.184 362.355 168.696C347.488 161.119 329.211 156.792 315.184 168.643C314.486 169.232 307.393 175.594 306.26 177.163C308.041 176.81 309.817 176.444 311.586 176.043C314.542 175.409 317.48 174.684 320.422 173.948L320.422 173.947Z" fill="#739A65"/>
<path d="M291.676 113.413C289.126 116.336 286.707 119.36 284.586 122.542L296.234 155.686C302.855 142.248 298.462 126.481 291.676 113.413Z" fill="#739A65"/>
<path d="M313.212 159.579C315.288 157.063 317.329 154.517 319.329 151.937L323.87 145.937L328.299 139.854L332.556 133.647C333.943 131.556 335.312 129.453 336.668 127.344C335.156 129.344 333.657 131.35 332.178 133.369L327.609 139.327L322.993 145.242L318.276 151.072C316.076 153.753 313.855 156.417 311.608 159.058C308.291 162.956 304.92 166.8 301.468 170.575L302.117 172.426C305.9 168.219 309.609 163.944 313.212 159.579Z" fill="#693E49"/>
<path d="M307.74 178.593C309.152 178.36 310.559 178.089 311.957 177.789C314.951 177.114 317.915 176.304 320.811 175.285C323.709 174.277 326.552 173.098 329.268 171.653L320.422 173.947C317.479 174.684 314.542 175.409 311.586 176.043C309.816 176.444 308.041 176.81 306.259 177.163C305.487 177.316 304.716 177.466 303.943 177.615L304.452 179.061C305.549 178.93 306.645 178.772 307.739 178.592L307.74 178.593Z" fill="#693E49"/>
<path d="M334.707 258.869C334.536 259.056 333.939 259.75 333.143 260.691L334.891 265.658C336.799 264.93 338.698 264.174 340.598 263.412L349.061 259.933C346.561 261.734 343.901 263.29 341.161 264.684C339.301 265.639 337.397 266.503 335.465 267.296L337.3 272.517C343.461 273.705 349.911 273.404 355.94 271.673C366.654 268.6 374.527 261.007 381.459 252.496C365.726 247.014 347.044 245.214 334.707 258.869H334.707Z" fill="#739A65"/>
<path d="M331.557 250.154C333.283 247.379 334.969 244.578 336.609 241.75L340.316 235.184L343.902 228.553L347.301 221.823C348.4 219.561 349.48 217.292 350.544 215.017C349.31 217.204 348.09 219.396 346.89 221.599L343.149 228.125L339.356 234.615L335.451 241.034C333.624 243.992 331.775 246.934 329.897 249.858C329.775 250.045 329.655 250.235 329.534 250.423L330.201 252.32C330.656 251.6 331.107 250.878 331.557 250.155L331.557 250.154Z" fill="#693E49"/>
<path d="M341.161 264.684C343.901 263.29 346.561 261.734 349.061 259.933L340.598 263.412C338.698 264.175 336.798 264.93 334.89 265.658L335.465 267.296C337.397 266.503 339.301 265.639 341.16 264.684L341.161 264.684Z" fill="#693E49"/>
<path d="M110.636 149.323C113.086 148.21 117.389 146.171 122.963 143.49L219.416 90.0924C219.416 90.0924 220.238 91.8904 221.724 95.1587C224.246 93.9155 226.487 92.8112 228.389 91.8739C225.263 84.9137 223.446 80.8987 223.446 80.8987L105.994 145.133C105.994 145.133 107.358 147.347 110.636 149.323Z" fill="#005072"/>
<path d="M114.413 151.073C114.589 151.134 114.767 151.192 114.949 151.249C156.28 129.576 198.049 108.767 240.221 88.84C239.946 88.8155 239.68 88.792 239.425 88.7685C197.341 108.666 155.658 129.439 114.413 151.073Z" fill="#693E49"/>
<path d="M119.684 152.205C119.923 152.231 120.166 152.251 120.411 152.269C163.239 128.926 204.998 108.213 248.028 89.5222C247.744 89.4977 247.462 89.4742 247.181 89.4499C204.203 108.146 162.479 128.863 119.684 152.205Z" fill="#693E49"/>
<path d="M125.766 152.189C126.127 152.154 126.494 152.114 126.867 152.065C168.138 130.31 210.314 109.83 252.522 89.9039C252.254 89.8815 251.984 89.859 251.717 89.8365C209.407 109.817 167.13 130.359 125.766 152.189Z" fill="#693E49"/>
<path d="M148.966 144.055L153.888 141.825C188.651 122.951 224.719 105.998 260.936 90.5837C260.648 90.5623 260.356 90.5399 260.061 90.5164C222.432 106.555 184.969 124.257 148.966 144.055Z" fill="#693E49"/>
<path d="M155.56 169.806C160.726 167.349 163.814 162.111 163.814 156.589C163.814 154.911 163.527 153.206 162.929 151.545L254.531 109.476C256.691 115.393 262.193 119.016 267.998 119.015C269.892 119.015 271.818 118.631 273.671 117.814L329.941 279.377C324.974 281.901 322.02 287.029 322.02 292.429C322.02 293.996 322.271 295.587 322.791 297.143L240.882 337.456C240.867 337.617 240.85 337.78 240.835 337.941L323.296 297.355L323.236 297.181C322.688 295.613 322.428 294.009 322.428 292.429C322.428 287.124 325.36 282.09 330.283 279.666L330.447 279.586L273.908 117.252L273.707 117.345C271.845 118.199 269.906 118.601 267.999 118.601C262.292 118.601 256.884 114.999 254.841 109.126L254.765 108.913L254.563 109.006L162.413 151.327L162.481 151.51C163.109 153.18 163.406 154.898 163.406 156.589C163.405 162.014 160.337 167.159 155.218 169.511L155.042 169.592L200.233 289.856C200.491 290.177 200.754 290.491 201.025 290.8L155.56 169.806L155.56 169.806Z" fill="#E0E0E0"/>
<path d="M177.896 304.325C176.355 300.376 175.259 296.186 173.71 292.272C171.505 286.703 169.675 280.965 167.768 275.263C168.027 276.652 168.286 278.041 168.548 279.43C170.187 288.183 172.274 296.813 175.363 305.144C176.205 304.862 177.05 304.589 177.896 304.325Z" fill="#E2645D"/>
<path d="M127.183 168.609C128.474 168.609 129.764 168.514 131.045 168.321C134.876 167.742 138.549 166.289 141.798 164.164L141.505 163.39C138.312 165.505 134.694 166.952 130.928 167.518C129.686 167.706 128.434 167.797 127.183 167.797C122.177 167.799 117.166 166.332 112.896 163.668L113.348 164.88C117.546 167.292 122.361 168.608 127.183 168.609L127.183 168.609Z" fill="#E0E0E0"/>
<path d="M130.015 182.518C130.447 182.518 130.88 182.508 131.313 182.485C137.4 182.175 143.28 179.7 147.96 175.768L147.623 174.88C143.045 178.807 137.249 181.29 131.268 181.589C130.85 181.61 130.432 181.62 130.015 181.62C125.475 181.622 120.959 180.384 116.954 178.184L117.423 179.446C121.324 181.417 125.652 182.516 130.015 182.518L130.015 182.518Z" fill="#E0E0E0"/>
<path d="M272.588 287.353C280.97 281.023 289.688 271.827 292.42 257.45C298.521 225.35 276.216 176.066 250.263 162.82C247.894 161.613 245.493 160.704 243.084 160.135C223.291 155.473 205.813 167.309 198.361 189.042C194.693 199.741 193.817 213.282 196.245 228.022C197.729 237.027 200.459 245.888 204.096 254.068C204.169 252.577 204.265 251.122 204.373 249.725C204.54 247.566 204.803 245.36 205.777 243.433C206.75 241.508 208.578 239.894 210.705 239.764C214.425 239.537 216.885 243.5 218.489 246.916C222.779 256.051 227.067 265.185 231.355 274.32C234.318 280.634 238.439 286.77 240.467 293.445C240.612 293.492 240.758 293.539 240.9 293.584C253.026 297.344 263.792 293.998 272.588 287.353Z" fill="#78C0DF"/>
<path d="M150.397 240.803C150.482 241.19 150.583 241.594 150.835 241.881C151.296 242.407 152.06 242.351 152.715 242.254C153.641 242.118 156.319 242.139 157.701 241.667C157.181 238.29 156.719 234.894 156.177 231.522C156.126 231.451 156.073 231.381 156.019 231.311C155.333 230.443 154.344 229.804 153.302 229.81C151.876 229.817 150.647 231.044 150.119 232.49C149.592 233.937 149.638 235.56 149.802 237.116C149.932 238.356 150.13 239.589 150.397 240.804L150.397 240.803Z" fill="#7CA4B2"/>
<path d="M214.436 257.94C216.68 257.794 218.882 255.541 218.955 253.278C219.055 250.226 216.89 244.705 214.613 242.674C210.475 238.981 208.442 244.258 208.418 247.598C208.397 250.467 209.738 254.764 211.735 256.851C212.538 257.692 213.491 258.003 214.436 257.94H214.436Z" fill="#7CA4B2"/>
<path d="M158.517 238.257C160.257 237.988 161.993 237.464 163.713 237.039C164.324 236.888 165.007 236.682 165.299 236.115C165.535 235.657 165.436 235.104 165.331 234.597C165.202 233.976 165.064 233.333 164.908 232.683C164.251 229.943 163.275 227.058 161.326 225.08C159.719 223.459 157.152 223.857 156.48 226.202C156.22 227.114 156.31 228.086 156.416 229.028C156.779 232.244 158.082 235.208 158.517 238.257Z" fill="#7CA4B2"/>
<path d="M145.609 272.48C145.891 272.091 145.969 271.633 146.035 271.188C146.414 268.629 146.865 266.241 146.355 263.661C146.225 262.996 145.724 262.255 144.883 262.213C144.442 262.191 144.032 262.382 143.743 262.657C143.636 262.761 143.544 262.874 143.475 262.995C143.221 263.435 143.197 263.935 143.178 264.421C143.086 266.67 142.787 268.895 142.873 271.118C142.889 271.537 142.908 271.964 143.106 272.35C143.224 272.583 143.425 272.801 143.677 272.946C143.844 273.042 144.034 273.107 144.239 273.125C144.797 273.175 145.328 272.87 145.609 272.48Z" fill="#7CA4B2"/>
<path d="M165.895 272.399C166.564 273.707 167.214 275.02 167.955 276.287L166.434 272.163C165.922 270.794 165.424 269.423 164.951 268.041C164.011 265.279 163.086 262.517 162.259 259.721C161.403 256.935 160.649 254.119 159.906 251.296C159.176 248.468 158.529 245.617 157.856 242.755C158.04 245.693 158.463 248.609 159.011 251.502C159.547 254.398 160.279 257.254 161.113 260.077C161.975 262.892 162.942 265.675 164.092 268.381C164.673 269.731 165.271 271.072 165.895 272.4L165.895 272.399Z" fill="#D98874"/>
<path d="M151.411 311.118C151.928 313.412 152.557 315.684 153.444 317.849C152.158 313.345 151.553 308.713 151.278 304.065C151.003 299.416 150.928 294.733 150.681 290.046C150.356 285.368 149.992 280.699 149.55 276.041L148.283 262.06C148.19 266.747 148.387 271.435 148.635 276.111C148.88 280.788 149.263 285.45 149.486 290.118C149.826 294.773 149.891 299.457 150.359 304.142C150.605 306.48 150.93 308.816 151.411 311.118Z" fill="#D98874"/>
<path d="M220.236 267.849C220.637 267.583 220.995 267.239 221.162 266.575C220.505 266.412 220.039 266.57 219.62 266.806C219.217 267.075 218.86 267.419 218.691 268.08C219.347 268.241 219.813 268.083 220.236 267.849Z" fill="#D98874"/>
<path d="M222.659 271.13C223.102 270.782 223.493 270.361 223.669 269.636C222.937 269.578 222.422 269.825 221.957 270.143C221.515 270.494 221.124 270.914 220.947 271.636C221.677 271.692 222.192 271.446 222.659 271.13Z" fill="#D98874"/>
<path d="M162.617 244.655C162.166 244.907 161.755 245.236 161.507 245.899C162.179 246.095 162.685 245.958 163.153 245.743C163.605 245.494 164.016 245.164 164.263 244.499C163.591 244.301 163.084 244.438 162.617 244.655Z" fill="#D98874"/>
<path d="M163.391 248.536C163.115 248.771 162.89 249.078 162.886 249.681C163.456 249.845 163.808 249.711 164.11 249.509C164.387 249.275 164.611 248.97 164.614 248.364C164.041 248.197 163.689 248.331 163.391 248.536Z" fill="#D98874"/>
<path d="M154.806 258.891C155.323 258.836 155.837 258.72 156.33 258.357C155.785 258.078 155.26 258.047 154.741 258.079C154.222 258.134 153.709 258.251 153.216 258.613C153.761 258.889 154.285 258.92 154.806 258.891Z" fill="#D98874"/>
<path d="M154.139 261.558C154.527 261.878 154.913 261.952 155.302 261.965C155.689 261.952 156.077 261.88 156.464 261.558C156.077 261.236 155.689 261.162 155.302 261.151C154.913 261.164 154.526 261.238 154.139 261.558Z" fill="#D98874"/>
<path d="M217.19 305.585C218.927 307.9 220.544 310.286 222.307 312.662C221.383 309.831 219.892 307.235 218.146 304.853C216.372 302.493 214.327 300.32 211.905 298.633C213.669 301.01 215.481 303.248 217.19 305.585Z" fill="#D98874"/>
</svg>
