<svg width="105" height="77" viewBox="0 0 105 77" fill="none" xmlns="http://www.w3.org/2000/svg">
<path d="M9.75175 0C4.40183 0 0.0253957 4.3112 0 9.59158C0 9.59158 0 9.59994 0 9.60829C0 9.61665 0 9.61665 0 9.625V67.375C0 72.6637 4.39337 77 9.75175 77H94.2669C99.6253 77 104.019 72.6637 104.019 67.375V9.625C104.019 9.61665 104.019 9.61665 104.019 9.60829C104.019 9.59994 104.019 9.59158 104.019 9.59158C103.993 4.3112 99.6168 0 94.2669 0H9.75175ZM15.3895 4.27778H88.6377L52.0093 29.4766L15.3895 4.27778ZM8.17725 4.52843L52.0093 34.6901L95.8499 4.52843C98.0677 5.18848 99.6676 7.17698 99.6846 9.59993C99.6761 10.0511 99.2105 10.9535 98.5333 11.6803C97.8476 12.4156 97.1789 12.8751 97.1789 12.8751L97.1704 12.8918L52.0093 44.4404L6.84823 12.8918L6.83977 12.8751C6.83977 12.8751 6.17103 12.4156 5.48536 11.6803C4.80816 10.9535 4.34258 10.0511 4.33411 9.59993C4.35104 7.17698 5.95094 5.18848 8.17725 4.52843ZM4.33411 16.3675L4.35104 16.3842L4.36797 16.3926V16.4009L10.8353 20.9127V72.7222H9.75175C6.73819 72.7222 4.33411 70.3494 4.33411 67.375V16.3675ZM99.6846 16.3675V67.375C99.6846 70.3494 97.2805 72.7222 94.2669 72.7222H93.1834V20.9127L99.6507 16.4009V16.3926L99.6846 16.3675ZM15.1694 23.9372L52.0093 49.6707L88.8493 23.9372V72.7222H15.1694V23.9372Z" fill="#175070"/>
</svg>
