<svg width="1049" height="1049" viewBox="0 0 1049 1049" fill="none" xmlns="http://www.w3.org/2000/svg">
<path d="M948.883 249.158C945.401 243.368 941.792 237.682 937.995 232.123C887.643 158.147 803.828 107.502 722.383 84.5704C686.696 74.5 650.065 69.234 613.497 67.8913C373.612 59.1846 285.475 256.963 208.185 307.965C130.894 358.968 12.2734 446.077 27.1692 629.064C38.4564 768.204 117.614 901.238 262.166 961.765C278.09 968.458 294.811 974.269 312.329 979.074C344.911 988.032 380.221 993.676 418.278 995.354C527.563 1000.22 616.309 973.871 703.103 907.532C723.286 892.112 743.342 874.719 769.525 872.81C788.554 871.425 806.597 878.265 786.708 896.664C763.336 918.274 790.296 960.8 849.669 931.26C948.8 881.915 989.585 775.463 1008.8 667.227C1032.38 534.382 1020.95 369.143 948.883 249.158Z" fill="#E9FBFD"/>
<path opacity="0.7" d="M948.883 249.158C945.401 243.368 941.792 237.682 937.995 232.123C887.643 158.147 803.828 107.502 722.383 84.5704C686.696 74.5 650.065 69.234 613.497 67.8913C373.612 59.1846 285.475 256.963 208.185 307.965C130.894 358.968 12.2734 446.077 27.1692 629.064C38.4564 768.204 117.614 901.238 262.166 961.765C278.09 968.458 294.811 974.269 312.329 979.074C344.911 988.032 380.221 993.676 418.278 995.354C527.563 1000.22 616.309 973.871 703.103 907.532C723.286 892.112 743.342 874.719 769.525 872.81C788.554 871.425 806.597 878.265 786.708 896.664C763.336 918.274 790.296 960.8 849.669 931.26C948.8 881.915 989.585 775.463 1008.8 667.227C1032.38 534.382 1020.95 369.143 948.883 249.158Z" fill="#E9FBFD"/>
<g opacity="0.3">
<path d="M1016.25 112.977H850.382V316.085H1016.25V112.977Z" fill="#C6E1EC" stroke="black" stroke-miterlimit="10" stroke-linecap="round" stroke-linejoin="round"/>
<path d="M1007.67 123.488H858.963V305.574H1007.67V123.488Z" fill="white" stroke="black" stroke-miterlimit="10" stroke-linecap="round" stroke-linejoin="round"/>
<path d="M966.57 173.819H900.063V255.243H966.57V173.819Z" fill="#C6E1EC" stroke="black" stroke-miterlimit="10" stroke-linecap="round" stroke-linejoin="round"/>
</g>
<g opacity="0.3">
<path d="M524.458 70.304H217.353V847.34H524.458V70.304Z" fill="#C6E1EC" stroke="black" stroke-miterlimit="10" stroke-linecap="round" stroke-linejoin="round"/>
<path d="M485.498 468.211H377.976V571.495H485.498V468.211Z" fill="white" stroke="black" stroke-miterlimit="10" stroke-linecap="round" stroke-linejoin="round"/>
<path d="M485.498 235.081H377.976V338.365H485.498V235.081Z" fill="white" stroke="black" stroke-miterlimit="10" stroke-linecap="round" stroke-linejoin="round"/>
<path d="M485.498 584.776H377.976V688.06H485.498V584.776Z" fill="white" stroke="black" stroke-miterlimit="10" stroke-linecap="round" stroke-linejoin="round"/>
<path d="M485.498 117.404H377.976V221.801H485.498V117.404Z" fill="white" stroke="black" stroke-miterlimit="10" stroke-linecap="round" stroke-linejoin="round"/>
<path d="M363.856 117.404H256.334V221.801H363.856V117.404Z" fill="white" stroke="black" stroke-miterlimit="10" stroke-linecap="round" stroke-linejoin="round"/>
<path d="M485.498 351.646H377.976V454.93H485.498V351.646Z" fill="white" stroke="black" stroke-miterlimit="10" stroke-linecap="round" stroke-linejoin="round"/>
<path d="M363.856 351.646H256.334V454.93H363.856V351.646Z" fill="white" stroke="black" stroke-miterlimit="10" stroke-linecap="round" stroke-linejoin="round"/>
<path d="M485.498 701.361H377.976V789.268H485.498V701.361Z" fill="white" stroke="black" stroke-miterlimit="10" stroke-linecap="round" stroke-linejoin="round"/>
<path d="M363.856 584.776H256.334V688.06H363.856V584.776Z" fill="white" stroke="black" stroke-miterlimit="10" stroke-linecap="round" stroke-linejoin="round"/>
<path d="M363.856 701.361H256.334V789.268H363.856V701.361Z" fill="white" stroke="black" stroke-miterlimit="10" stroke-linecap="round" stroke-linejoin="round"/>
<path d="M363.856 468.211H256.334V571.495H363.856V468.211Z" fill="white" stroke="black" stroke-miterlimit="10" stroke-linecap="round" stroke-linejoin="round"/>
<path d="M363.856 235.081H256.334V338.365H363.856V235.081Z" fill="white" stroke="black" stroke-miterlimit="10" stroke-linecap="round" stroke-linejoin="round"/>
<path d="M233.654 71.8774V846.648" stroke="black" stroke-miterlimit="10" stroke-linecap="round" stroke-linejoin="round"/>
<path d="M524.468 847.352H831.573L831.573 70.3161H524.468L524.468 847.352Z" fill="#C6E1EC" stroke="black" stroke-miterlimit="10" stroke-linecap="round" stroke-linejoin="round"/>
<path d="M670.961 468.211H563.439V571.495H670.961V468.211Z" fill="white" stroke="black" stroke-miterlimit="10" stroke-linecap="round" stroke-linejoin="round"/>
<path d="M670.961 235.081H563.439V338.365H670.961V235.081Z" fill="white" stroke="black" stroke-miterlimit="10" stroke-linecap="round" stroke-linejoin="round"/>
<path d="M670.961 584.776H563.439V688.06H670.961V584.776Z" fill="white" stroke="black" stroke-miterlimit="10" stroke-linecap="round" stroke-linejoin="round"/>
<path d="M670.961 117.404H563.439V221.801H670.961V117.404Z" fill="white" stroke="black" stroke-miterlimit="10" stroke-linecap="round" stroke-linejoin="round"/>
<path d="M792.603 117.404H685.081V221.801H792.603V117.404Z" fill="white" stroke="black" stroke-miterlimit="10" stroke-linecap="round" stroke-linejoin="round"/>
<path d="M670.961 351.646H563.439V454.93H670.961V351.646Z" fill="white" stroke="black" stroke-miterlimit="10" stroke-linecap="round" stroke-linejoin="round"/>
<path d="M792.603 351.646H685.081V454.93H792.603V351.646Z" fill="white" stroke="black" stroke-miterlimit="10" stroke-linecap="round" stroke-linejoin="round"/>
<path d="M670.961 701.361H563.439V789.268H670.961V701.361Z" fill="white" stroke="black" stroke-miterlimit="10" stroke-linecap="round" stroke-linejoin="round"/>
<path d="M792.603 584.776H685.081V688.06H792.603V584.776Z" fill="white" stroke="black" stroke-miterlimit="10" stroke-linecap="round" stroke-linejoin="round"/>
<path d="M792.603 701.361H685.081V789.268H792.603V701.361Z" fill="white" stroke="black" stroke-miterlimit="10" stroke-linecap="round" stroke-linejoin="round"/>
<path d="M792.603 468.211H685.081V571.495H792.603V468.211Z" fill="white" stroke="black" stroke-miterlimit="10" stroke-linecap="round" stroke-linejoin="round"/>
<path d="M792.603 235.081H685.081V338.365H792.603V235.081Z" fill="white" stroke="black" stroke-miterlimit="10" stroke-linecap="round" stroke-linejoin="round"/>
<path d="M815.283 71.8775V846.648" stroke="black" stroke-miterlimit="10" stroke-linecap="round" stroke-linejoin="round"/>
</g>
<path d="M232.521 748.168H128.712L139.097 886.594H222.136L232.521 748.168Z" fill="#999999"/>
<path d="M174.533 466.239V769.19L185.148 758.574V582.363L218.003 504.716L183.113 569.838L181.813 475.826L174.533 466.239Z" fill="#999999"/>
<path d="M153.888 452.874L93.4449 414.607L129.698 453.881L71.29 439.783L112.579 459.924H42.0858L100.494 468.987L32.0154 482.099L87.4026 480.085L36.0436 501.233L91.4308 492.17L17.9169 542.522L105.529 500.226L59.2055 546.55L101.501 519.36L71.29 572.733L115.6 521.374L93.4449 567.698L132.719 518.353V552.592L150.867 511.304V534.466L168.994 486.128V510.297L181.813 475.826L185.106 466.994L145.832 413.6L157.916 445.825L145.832 435.755L153.888 452.874Z" fill="#8FBEDC"/>
<path d="M146.231 547.62L75.2552 556.432L128.209 563.754L74.1223 589.958L118.81 579.3L64.3666 624.071L115.243 593.965L70.6606 647.569L112.159 610.833L85.913 659.8L122.943 617.609L98.1444 703.208L138.95 614.882L132.594 680.088L147.993 632.232L158.546 692.634L160.161 624.826L172.477 674.675L171.469 611.63L193.205 638.065L180.994 594.657L195.701 612.553L179.001 563.712L194.359 582.363L182.379 547.62L179.295 538.682L115.075 522.402L144.867 539.627L129.132 539.522L146.231 547.62Z" fill="#8FBEDC"/>
<path d="M146.231 547.62L75.2552 556.432L128.209 563.754L74.1223 589.958L118.81 579.3L64.3666 624.071L115.243 593.965L70.6606 647.569L112.159 610.833L85.913 659.8L122.943 617.609L98.1444 703.208L138.95 614.882L132.594 680.088L147.993 632.232L158.546 692.634L160.161 624.826L172.477 674.675L171.469 611.63L193.205 638.065L180.994 594.657L195.701 612.553L179.001 563.712L194.359 582.363L182.379 547.62L179.295 538.682L115.075 522.402L144.867 539.627L129.132 539.522L146.231 547.62Z" fill="#8FBEDC"/>
<path d="M210.912 434.37L304.755 421.173L239.55 448.783L317.742 463.658L256.9 465.42L341.995 503.919L266.551 482.96L342.058 536.165L276.307 503.478L326.743 557.04L264.831 515.856L326.071 616.791L243.41 517.891L274.041 599.105L237.829 543.193L245.151 624.113L219.724 537.927L221.171 605.923L200.695 524.92L182.001 566.25L182.673 506.52L170.022 534.465L174.533 466.239L161.336 495.401L164.693 446.811L165.553 434.328L242.088 391.361L209.905 423.67L230.004 418.11L210.912 434.37Z" fill="#8FBEDC"/>
<path d="M198.744 417.838L237.011 357.415L197.736 393.669L211.835 335.26L191.694 376.549V306.056L182.631 364.465L169.539 295.986L171.553 351.373L150.406 300.014L159.469 355.401L109.117 281.887L151.413 369.5L105.089 323.176L132.279 365.472L78.9058 335.26L130.265 379.57L83.941 357.415L133.286 396.69H99.0466L140.335 414.817H117.173L165.511 432.943H141.342L175.791 445.762L184.645 449.056L238.018 409.781L205.793 421.866L215.863 409.781L198.744 417.838Z" fill="#8FBEDC"/>
<path d="M577.558 472.931C573.048 447.21 556.662 432.083 556.662 432.083C536.731 420.502 520.975 433.363 520.975 433.363C520.975 433.363 505.219 420.502 485.288 432.083C485.288 432.083 468.882 447.189 464.392 472.931C459.882 498.653 477.568 509.919 477.568 509.919H520.975H564.362C564.362 509.919 582.048 498.653 577.558 472.931Z" fill="#07334C" stroke="#07334C" stroke-miterlimit="10" stroke-linecap="round" stroke-linejoin="round"/>
<path d="M588.825 501.695C588.825 501.695 625.938 498.338 640.037 522.507C654.135 546.655 693.053 657.387 689.697 663.43C686.34 669.472 662.192 669.472 653.464 662.758C644.736 656.045 605.147 588.951 605.147 588.951L588.825 501.695Z" fill="white" stroke="#07334C" stroke-miterlimit="10" stroke-linecap="round" stroke-linejoin="round"/>
<path d="M597.406 532.64C597.406 532.64 613.12 573.635 616.497 606.763L605.147 588.951L597.406 532.64Z" fill="#07334C" stroke="#07334C" stroke-miterlimit="10" stroke-linecap="round" stroke-linejoin="round"/>
<path d="M616.896 720.474C610.371 700.333 590.125 659.401 590.125 656.716C590.125 654.03 607.098 604.371 607.098 582.237C607.098 560.082 588.825 501.716 588.825 501.716C588.825 501.716 560.9 497.142 554.459 489.82C548.019 482.519 549.047 445.972 549.047 445.972L520.912 442.657L492.778 445.972C492.778 445.972 493.785 482.519 487.365 489.82C480.925 497.121 453 501.716 453 501.716C453 501.716 434.727 560.103 434.727 582.237C434.727 604.392 451.699 654.051 451.699 656.716C451.699 659.401 431.454 700.333 424.929 720.474C418.404 740.615 412.53 779.533 411.879 797.639L520.933 864.082L629.987 797.639C629.316 779.512 623.442 740.594 616.896 720.474Z" fill="white" stroke="#07334C" stroke-miterlimit="10" stroke-linecap="round" stroke-linejoin="round"/>
<path d="M515.646 462.987L546.424 469.26L545.732 445.175L515.646 462.987Z" fill="#07334C" stroke="#07334C" stroke-miterlimit="10" stroke-linecap="round" stroke-linejoin="round"/>
<path d="M477.526 509.919C477.526 509.919 505.891 508.408 511.681 508.828" stroke="#07334C" stroke-miterlimit="10" stroke-linecap="round" stroke-linejoin="round"/>
<path d="M564.362 509.919L534.487 508.136C534.487 508.136 526.892 509.52 526.892 514.346" stroke="#07334C" stroke-miterlimit="10" stroke-linecap="round" stroke-linejoin="round"/>
<path d="M563.25 345.037C560.25 340.631 556.369 337.274 550.725 334.253C545.858 331.652 540.571 329.785 535.221 328.358C517.031 323.47 486.736 327.624 476.414 345.1C467.812 359.66 467.162 365.43 468.756 378.983C470.351 392.536 478.953 439.951 486.61 448.091C494.268 456.231 511.493 462.987 515.626 462.987C519.759 462.987 519.78 462.987 519.78 462.987C519.78 462.987 519.78 462.987 523.934 462.987C528.088 462.987 545.291 456.21 552.949 448.091C560.607 439.951 569.208 392.536 570.803 378.983C571.831 370.234 570.803 361.443 567.488 353.219C566.25 350.093 564.887 347.408 563.25 345.037Z" fill="white" stroke="#07334C" stroke-miterlimit="10" stroke-linecap="round" stroke-linejoin="round"/>
<path d="M490.596 393.837C490.596 393.837 500.226 398.473 510.192 392.053" stroke="#07334C" stroke-miterlimit="10" stroke-linecap="round" stroke-linejoin="round"/>
<path d="M512.332 372.794C512.332 372.794 496.282 363.877 487.386 378.144" stroke="#07334C" stroke-width="2" stroke-miterlimit="10" stroke-linecap="round" stroke-linejoin="round"/>
<path d="M551.543 393.837C551.543 393.837 541.913 398.473 531.948 392.053" stroke="#07334C" stroke-miterlimit="10" stroke-linecap="round" stroke-linejoin="round"/>
<path d="M529.787 372.794C529.787 372.794 545.837 363.877 554.732 378.144" stroke="#07334C" stroke-width="2" stroke-miterlimit="10" stroke-linecap="round" stroke-linejoin="round"/>
<path d="M529.787 381.353C529.787 381.353 524.437 396.69 526.577 398.116C528.717 399.543 531.57 402.753 530.144 406.676C528.717 410.6 525.15 411.67 524.08 411.67" stroke="#07334C" stroke-miterlimit="10" stroke-linecap="round" stroke-linejoin="round"/>
<path d="M525.528 429.482C525.528 431.454 524.164 433.048 522.507 433.048C520.85 433.048 519.486 431.454 519.486 429.482C519.486 427.509 520.85 425.915 522.507 425.915C524.164 425.915 525.528 427.509 525.528 429.482Z" fill="#07334C"/>
<path d="M567.509 354.604C566.25 351.331 564.887 348.499 563.271 346.002C560.271 341.366 556.39 337.841 550.746 334.673C545.879 331.946 540.592 329.973 535.242 328.463C518.919 323.847 497.499 326.386 484.051 337.253C469.218 349.233 464.896 373.171 470.477 390.69C473.204 389.578 475.092 386.682 475.008 383.745C474.903 379.738 471.568 376.276 471.672 372.269C471.777 368.409 474.945 365.451 477.295 362.388C482.96 355.003 485.016 344.555 492.883 339.582C497.31 336.771 502.849 336.309 508.073 336.603C512.437 336.855 516.758 337.631 521.143 337.694C524.773 337.736 528.004 336.561 531.612 336.288C538.787 335.764 546.151 338.554 550.62 344.303C556.159 351.436 558.781 360.709 564.32 366.395C569.859 372.101 565.306 376.381 563.67 382.444C562.264 387.668 567.887 390.773 569.46 391.529C570.09 387.522 570.551 384.123 570.824 381.731C571.831 372.521 570.824 363.269 567.509 354.604Z" fill="#07334C" stroke="#07334C" stroke-miterlimit="10" stroke-linecap="round" stroke-linejoin="round"/>
<path d="M470.456 390.669C470.456 390.669 465.273 385.99 460.994 390.606C456.714 395.242 459.567 405.229 462.064 409.488C464.56 413.747 475.973 418.761 475.973 418.761L470.456 390.669Z" fill="white" stroke="#07334C" stroke-miterlimit="10" stroke-linecap="round" stroke-linejoin="round"/>
<path d="M569.88 390.669C569.88 390.669 575.314 386.263 579.321 391.13C583.328 395.997 579.95 405.795 577.223 409.928C574.495 414.061 563.523 418.006 563.523 418.006L569.88 390.669Z" fill="white" stroke="#07334C" stroke-miterlimit="10" stroke-linecap="round" stroke-linejoin="round"/>
<path d="M411.879 797.639L538.389 878.852L629.966 797.639C629.463 783.519 625.77 756.749 621.071 736.104C509.185 750.161 441.881 740.804 420.586 736.797C415.97 757.357 412.362 783.666 411.879 797.639Z" fill="#07334C" stroke="#07334C" stroke-miterlimit="10" stroke-linecap="round" stroke-linejoin="round"/>
<path d="M419.243 743.175C519.486 760.966 598.916 746.762 622.288 741.601C620.63 733.629 618.805 726.265 616.917 720.474C610.392 700.333 590.147 659.401 590.147 656.716C590.147 654.03 607.119 604.371 607.119 582.237C607.119 560.082 588.846 501.716 588.846 501.716C588.846 501.716 580.894 500.415 572.502 498.086C572.964 517.807 570.845 587.839 516.591 580.894C463.448 574.118 467.938 515.898 470.665 497.709C461.812 500.268 453.042 501.695 453.042 501.695C453.042 501.695 434.769 560.082 434.769 582.216C434.769 604.371 451.741 654.031 451.741 656.695C451.741 659.38 431.496 700.312 424.971 720.453C422.915 726.642 420.985 734.594 419.243 743.175Z" fill="#8FBEDC" stroke="#07334C" stroke-miterlimit="10" stroke-linecap="round" stroke-linejoin="round"/>
<path d="M501.233 738.685C501.233 738.685 553.872 721.146 559.012 717.306C564.152 713.446 571.202 710.257 571.202 710.257L609.7 703.208L605.21 692.298C605.21 692.298 559.642 700.648 548.103 706.418C536.543 712.166 501.233 738.685 501.233 738.685Z" fill="#07334C" stroke="#07334C" stroke-miterlimit="10" stroke-linecap="round" stroke-linejoin="round"/>
<path d="M479.918 652.499L564.887 619.351" stroke="#07334C" stroke-miterlimit="10" stroke-linecap="round" stroke-linejoin="round"/>
<path d="M558.676 631.771L529.661 642.135" stroke="#07334C" stroke-miterlimit="10" stroke-linecap="round" stroke-linejoin="round"/>
<path d="M453 501.695C453 501.695 423.272 497.667 402.459 519.15C381.647 540.634 346.086 598.329 346.086 607.728C346.086 617.127 371.577 619.141 387.689 611.084C403.802 603.028 436.678 560.082 436.678 560.082L453 501.695Z" fill="white" stroke="#07334C" stroke-miterlimit="10" stroke-linecap="round" stroke-linejoin="round"/>
<path d="M657.765 629.547C655.688 629.442 644.674 635.673 635.002 641.925C622.645 649.918 585.783 676.836 570.341 679.521C554.9 682.207 548.858 680.864 548.858 680.864C548.858 680.864 530.647 672.808 525.948 672.136C521.248 671.465 513.444 673.794 507.066 674.864C500.688 675.934 496.429 674.339 496.702 676.185C496.974 678.053 497.226 680.969 501.485 682.039C505.744 683.109 512.122 682.563 512.122 682.563C512.122 682.563 518.5 682.836 519.57 683.088C520.64 683.361 477.82 703.019 477.82 703.019C477.82 703.019 477.295 704.089 479.141 705.138C481.009 706.208 501.233 702.012 501.233 702.012L502.009 704.341C502.009 704.341 474.631 716.299 474.085 717.369C473.561 718.439 473.812 720.831 475.68 720.831C477.547 720.831 503.541 712.67 503.541 712.67L504.128 715.25C504.128 715.25 483.4 728.803 482.855 729.601C482.33 730.398 482.855 732.789 484.722 732.517C486.589 732.244 508.639 722.95 508.639 722.95L509.541 724.586C509.541 724.586 497.457 736.251 497.73 737.321C498.002 738.391 499.597 739.713 501.191 738.643C502.786 737.573 520.871 727.733 520.871 727.733C520.871 727.733 546.655 717.621 548.249 717.096C549.844 716.572 567.656 705.39 567.656 705.39C567.656 705.39 625.624 697.69 650.065 685.459C674.528 673.227 689.34 668.947 689.655 663.388C689.948 657.828 684.095 641.862 684.095 641.862" fill="white"/>
<path d="M657.765 629.547C655.688 629.442 644.674 635.673 635.002 641.925C622.645 649.918 585.783 676.836 570.341 679.521C554.9 682.207 548.858 680.864 548.858 680.864C548.858 680.864 530.647 672.808 525.948 672.136C521.248 671.465 513.444 673.794 507.066 674.864C500.688 675.934 496.429 674.339 496.702 676.185C496.974 678.053 497.226 680.969 501.485 682.039C505.744 683.109 512.122 682.563 512.122 682.563C512.122 682.563 518.5 682.836 519.57 683.088C520.64 683.361 477.82 703.019 477.82 703.019C477.82 703.019 477.295 704.089 479.141 705.138C481.009 706.208 501.233 702.012 501.233 702.012L502.009 704.341C502.009 704.341 474.631 716.299 474.085 717.369C473.561 718.439 473.812 720.831 475.68 720.831C477.547 720.831 503.541 712.67 503.541 712.67L504.128 715.25C504.128 715.25 483.4 728.803 482.855 729.601C482.33 730.398 482.855 732.789 484.722 732.517C486.589 732.244 508.639 722.95 508.639 722.95L509.541 724.586C509.541 724.586 497.457 736.251 497.73 737.321C498.002 738.391 499.597 739.713 501.191 738.643C502.786 737.573 520.871 727.733 520.871 727.733C520.871 727.733 546.655 717.621 548.249 717.096C549.844 716.572 567.656 705.39 567.656 705.39C567.656 705.39 625.624 697.69 650.065 685.459C674.528 673.227 689.34 668.947 689.655 663.388C689.948 657.828 684.095 641.862 684.095 641.862" stroke="#07334C" stroke-miterlimit="10" stroke-linecap="round" stroke-linejoin="round"/>
<path d="M358.234 584.839C358.234 584.839 385.696 569.691 421.677 557.69C457.658 545.69 481.008 538.116 502.786 528.339C524.563 518.563 521.416 521.71 522.36 521.71C523.304 521.71 550.138 527.395 552.026 527.71C553.914 528.025 581.377 537.801 581.377 537.801C581.377 537.801 581.691 540.634 579.174 541.599C576.656 542.543 576.656 542.543 576.656 542.543C576.656 542.543 575.083 545.375 572.544 545.69C570.027 546.005 564.026 546.949 563.082 546.949C562.138 546.949 558.341 548.837 554.564 549.781C550.788 550.725 546.676 551.669 544.473 551.984C542.27 552.299 531.214 552.928 531.214 552.928C531.214 552.928 522.381 555.131 512.898 555.446C503.436 555.76 491.436 554.187 491.436 554.187C491.436 554.187 398.956 618.574 387.585 625.204C376.213 631.834 364.549 638.778 355.066 636.26C345.604 633.743 338.974 630.575 340.547 622.686C342.121 614.84 345.918 598.413 358.234 584.839Z" fill="white" stroke="#07334C" stroke-miterlimit="10" stroke-linecap="round" stroke-linejoin="round"/>
<path d="M526.766 528.025C526.766 528.025 546.655 530.542 551.69 530.857C556.746 531.172 581.356 537.801 581.356 537.801" stroke="#07334C" stroke-miterlimit="10" stroke-linecap="round" stroke-linejoin="round"/>
<path d="M528.36 535.913L558.026 537.193L576.635 542.543" stroke="#07334C" stroke-miterlimit="10" stroke-linecap="round" stroke-linejoin="round"/>
<path d="M528.025 543.172L543.823 544.137L563.061 546.97" stroke="#07334C" stroke-miterlimit="10" stroke-linecap="round" stroke-linejoin="round"/>
<path d="M566.313 846.585C566.313 846.585 595.538 805.401 623.064 786.582C650.611 767.763 707.928 751.881 755.133 770.7C802.338 789.519 836.619 835.403 840.543 841.885C844.487 848.347 841.109 863.642 835.487 871.299C829.864 878.957 815.807 886.594 808.506 886.594C801.205 886.594 796.694 886.594 796.694 886.594H465.735C465.735 886.594 464.057 880.132 469.679 874.824C475.302 869.537 508.45 858.355 515.206 854.83C521.94 851.305 529.808 830.116 542.753 826.004C555.634 821.891 566.313 846.585 566.313 846.585Z" fill="#07334C" stroke="#07334C" stroke-miterlimit="10" stroke-linecap="round" stroke-linejoin="round"/>
<path d="M777.813 886.594H466.658C466.658 886.594 464.98 880.132 470.56 874.824C476.12 869.537 508.954 858.355 515.646 854.83C522.318 851.305 530.123 830.116 542.92 826.004C555.718 821.891 566.292 846.585 566.292 846.585C566.292 846.585 569.628 851.284 575.209 854.557C580.768 857.83 590.063 861.418 591.909 861.418C593.755 861.418 633.68 856.194 654.093 846.375C674.507 836.578 703.9 816.961 727.712 814.339C751.525 811.716 771.015 823.486 783.079 831.983" fill="#07334C"/>
<path d="M777.813 886.594H466.658C466.658 886.594 464.98 880.132 470.56 874.824C476.12 869.537 508.954 858.355 515.646 854.83C522.318 851.305 530.123 830.116 542.92 826.004C555.718 821.891 566.292 846.585 566.292 846.585C566.292 846.585 569.628 851.284 575.209 854.557C580.768 857.83 590.063 861.418 591.909 861.418C593.755 861.418 633.68 856.194 654.093 846.375C674.507 836.578 703.9 816.961 727.712 814.339C751.525 811.716 771.015 823.486 783.079 831.983" stroke="#07334C" stroke-miterlimit="10" stroke-linecap="round" stroke-linejoin="round"/>
<path d="M792.352 841.801C792.352 841.801 782.764 852.585 773.491 854.222C764.218 855.858 730.796 850.634 719.656 848.012" stroke="#919191" stroke-miterlimit="10" stroke-linecap="round" stroke-linejoin="round"/>
<path d="M591.888 861.418C593.734 861.418 633.659 856.194 654.073 846.375C674.486 836.578 703.879 816.961 727.691 814.339C751.504 811.716 770.994 823.486 783.058 831.983" stroke="#919191" stroke-miterlimit="10" stroke-linecap="round" stroke-linejoin="round"/>
<path d="M591.216 861.334L588.594 886.594H466.658C466.658 886.594 464.98 880.132 470.56 874.824C476.12 869.537 508.954 858.355 515.646 854.83C522.318 851.305 530.123 830.116 542.92 826.004C555.718 821.891 566.292 846.585 566.292 846.585C566.292 846.585 569.628 851.285 575.209 854.557C580.265 857.537 588.405 860.788 591.216 861.334Z" fill="white" stroke="#07334C" stroke-miterlimit="10" stroke-linecap="round" stroke-linejoin="round"/>
<path d="M503.919 846.585C503.919 846.585 473.33 805.401 444.503 786.582C415.677 767.763 355.674 751.881 306.266 770.7C256.858 789.519 220.982 835.403 216.849 841.885C212.737 848.347 216.262 863.642 222.136 871.299C228.011 878.936 242.718 886.594 250.375 886.594C258.012 886.594 262.733 886.594 262.733 886.594H609.196C609.196 886.594 610.959 880.132 605.084 874.824C599.21 869.537 564.488 858.355 557.439 854.83C550.389 851.305 542.144 830.116 528.612 826.004C515.08 821.891 503.919 846.585 503.919 846.585Z" fill="#07334C" stroke="#07334C" stroke-miterlimit="10" stroke-linecap="round" stroke-linejoin="round"/>
<path d="M280.356 886.594H609.196C609.196 886.594 610.959 880.132 605.084 874.824C599.21 869.537 564.488 858.355 557.439 854.83C550.389 851.305 542.144 830.116 528.612 826.004C515.08 821.891 503.898 846.585 503.898 846.585C503.898 846.585 500.373 851.285 494.478 854.557C488.582 857.83 478.785 861.418 476.833 861.418C474.882 861.418 432.692 856.194 411.124 846.375C389.536 836.578 358.485 816.961 333.309 814.339C308.133 811.716 287.531 823.486 274.796 831.983" fill="#07334C"/>
<path d="M280.356 886.594H609.196C609.196 886.594 610.959 880.132 605.084 874.824C599.21 869.537 564.488 858.355 557.439 854.83C550.389 851.305 542.144 830.116 528.612 826.004C515.08 821.891 503.898 846.585 503.898 846.585C503.898 846.585 500.373 851.285 494.478 854.557C488.582 857.83 478.785 861.418 476.833 861.418C474.882 861.418 432.692 856.194 411.124 846.375C389.536 836.578 358.485 816.961 333.309 814.339C308.133 811.716 287.531 823.486 274.796 831.983" stroke="#07334C" stroke-miterlimit="10" stroke-linecap="round" stroke-linejoin="round"/>
<path d="M264.998 841.801C264.998 841.801 275.132 852.585 284.95 854.222C294.769 855.858 330.057 850.634 341.827 848.012" stroke="#919191" stroke-miterlimit="10" stroke-linecap="round" stroke-linejoin="round"/>
<path d="M476.833 861.418C474.882 861.418 432.692 856.194 411.124 846.375C389.536 836.578 358.485 816.961 333.309 814.339C308.133 811.716 287.531 823.486 274.796 831.983" stroke="#919191" stroke-miterlimit="10" stroke-linecap="round" stroke-linejoin="round"/>
<path d="M477.547 861.334L480.337 886.594H609.196C609.196 886.594 610.959 880.132 605.084 874.824C599.21 869.537 564.488 858.355 557.439 854.83C550.389 851.305 542.144 830.116 528.612 826.004C515.08 821.891 503.898 846.585 503.898 846.585C503.898 846.585 500.373 851.285 494.478 854.557C489.128 857.537 480.526 860.788 477.547 861.334Z" fill="white" stroke="#07334C" stroke-miterlimit="10" stroke-linecap="round" stroke-linejoin="round"/>
<path d="M420.418 777.099C420.418 777.099 462.022 788.785 498.023 823.843" stroke="#919191" stroke-miterlimit="10" stroke-linecap="round" stroke-linejoin="round"/>
<path d="M623.085 786.582C623.085 786.582 586.832 801.394 556.453 822.899" stroke="#919191" stroke-miterlimit="10" stroke-linecap="round" stroke-linejoin="round"/>
<path d="M47.2679 886.594H1001.67" stroke="#263238" stroke-miterlimit="10" stroke-linecap="round" stroke-linejoin="round"/>
</svg>
