<svg width="77" height="77" viewBox="0 0 77 77" fill="none" xmlns="http://www.w3.org/2000/svg">
<path d="M22.6147 0C10.1461 0 0 10.2068 0 22.75V54.25C0 66.7931 10.1461 77 22.6147 77H53.9274C66.3959 77 76.5421 66.7931 76.5421 54.25V22.75C76.5421 10.2068 66.3959 0 53.9274 0H22.6147ZM22.6147 3.5H53.9274C64.5154 3.5 73.0629 12.0987 73.0629 22.75V54.25C73.0629 64.9013 64.5154 73.5 53.9274 73.5H22.6147C12.0267 73.5 3.47918 64.9013 3.47918 54.25V22.75C3.47918 12.0987 12.0267 3.5 22.6147 3.5ZM59.1461 14C58.2234 14 57.3384 14.3687 56.686 15.0251C56.0335 15.6815 55.6669 16.5717 55.6669 17.5C55.6669 18.4283 56.0335 19.3185 56.686 19.9749C57.3384 20.6313 58.2234 21 59.1461 21C60.0689 21 60.9538 20.6313 61.6063 19.9749C62.2588 19.3185 62.6253 18.4283 62.6253 17.5C62.6253 16.5717 62.2588 15.6815 61.6063 15.0251C60.9538 14.3687 60.0689 14 59.1461 14ZM38.271 19.25C27.7234 19.25 19.1355 27.8892 19.1355 38.5C19.1355 49.1108 27.7234 57.75 38.271 57.75C48.8187 57.75 57.4065 49.1108 57.4065 38.5C57.4065 27.8892 48.8187 19.25 38.271 19.25ZM38.271 22.75C46.9384 22.75 53.9274 29.7808 53.9274 38.5C53.9274 47.2192 46.9384 54.25 38.271 54.25C29.6037 54.25 22.6147 47.2192 22.6147 38.5C22.6147 29.7808 29.6037 22.75 38.271 22.75Z" fill="#175070"/>
</svg>
